<?xml version="1.0" standalone="no"?>
<!DOCTYPE svg PUBLIC "-//W3C//DTD SVG 20010904//EN"
 "http://www.w3.org/TR/2001/REC-SVG-20010904/DTD/svg10.dtd">
<svg version="1.0" xmlns="http://www.w3.org/2000/svg"
 width="501.000000pt" height="501.000000pt" viewBox="0 0 501.000000 501.000000"
 preserveAspectRatio="xMidYMid meet">
<metadata>
Created by potrace 1.11, written by Peter Selinger 2001-2013
</metadata>
<g transform="translate(0.000000,501.000000) scale(0.100000,-0.100000)"
fill="#000000" stroke="none">
<path d="M2245 4420 c-44 -10 -101 -39 -129 -66 -17 -17 -33 -24 -51 -21 -15
2 -54 0 -86 -5 -54 -7 -60 -6 -85 17 -27 25 -47 30 -113 26 -36 -2 -64 -14
-151 -67 -30 -18 -91 -45 -135 -59 -85 -29 -139 -69 -150 -112 -4 -19 -10 -23
-23 -17 -31 14 -107 7 -155 -14 -58 -26 -159 -125 -177 -173 l-13 -35 -56 4
c-50 3 -60 0 -98 -28 -45 -33 -90 -110 -99 -172 -5 -27 -12 -38 -29 -42 -35
-9 -83 -53 -105 -96 -18 -34 -37 -114 -32 -132 1 -4 -7 -9 -17 -13 -59 -18
-109 -103 -117 -196 -3 -35 -15 -84 -26 -109 -10 -25 -22 -63 -25 -85 -4 -31
-13 -45 -37 -60 -48 -31 -75 -96 -76 -181 0 -61 -4 -77 -29 -115 -40 -60 -54
-121 -46 -189 4 -30 7 -91 7 -135 0 -88 13 -175 47 -304 28 -106 51 -151 96
-187 19 -16 37 -39 39 -50 12 -61 71 -107 146 -112 l57 -4 -13 -28 c-45 -90
-34 -239 26 -360 61 -121 260 -337 355 -385 32 -17 70 -46 88 -70 50 -63 88
-95 142 -121 58 -27 81 -32 147 -33 38 -1 53 -7 80 -32 77 -72 206 -98 310
-61 140 49 278 189 339 344 61 156 60 322 -5 479 -5 12 1 19 23 27 26 9 32 8
40 -7 22 -41 148 -48 219 -12 22 11 52 34 68 50 l28 30 28 -20 c15 -11 59 -31
98 -44 39 -13 106 -43 148 -67 129 -72 151 -80 238 -86 96 -6 147 5 259 55 59
26 96 37 141 38 77 4 174 45 207 89 14 17 40 63 59 101 20 39 50 98 68 132 26
50 33 75 35 135 2 41 0 92 -5 113 -8 33 -5 42 15 67 13 15 26 41 30 58 7 30 7
31 31 15 13 -9 63 -29 111 -46 47 -17 104 -43 126 -57 56 -37 110 -36 159 2
58 44 104 56 153 41 39 -11 45 -10 91 16 27 16 78 38 114 50 127 42 158 76
191 213 11 45 38 134 60 199 47 137 52 201 21 289 -21 57 -27 90 -37 203 -10
107 -79 216 -150 238 -14 5 -24 22 -32 58 -17 71 -63 146 -124 205 -29 27 -94
90 -143 140 -90 91 -104 99 -196 118 -17 4 -33 20 -49 51 -29 55 -74 96 -144
131 -29 14 -92 49 -142 78 -89 51 -89 51 -188 54 -94 2 -157 19 -157 41 0 20
-55 73 -99 95 -103 52 -326 78 -404 47 -25 -10 -30 -7 -60 24 -50 55 -132 83
-231 81 -73 -1 -83 1 -99 20 -9 13 -33 28 -52 34 -34 11 -195 11 -250 0z m232
-48 c13 -1 28 -13 36 -29 14 -27 16 -27 123 -27 117 -1 150 -11 205 -63 17
-15 50 -29 91 -38 36 -7 102 -32 147 -54 92 -47 161 -64 210 -53 52 11 52 32
0 25 -30 -4 -40 -3 -35 5 5 9 1 10 -16 3 -34 -12 -54 -3 -31 15 16 13 15 13
-9 3 -15 -6 -34 -9 -43 -5 -15 5 -15 9 -4 23 13 15 12 15 -8 5 -24 -13 -56 -6
-46 11 4 6 0 8 -9 5 -8 -4 -28 2 -44 13 l-29 20 87 -6 c142 -9 213 -39 313
-128 49 -45 78 -55 180 -61 94 -5 101 -8 180 -57 33 -20 83 -47 110 -60 28
-12 61 -30 75 -38 l24 -16 -29 -6 c-29 -6 -28 -7 7 -8 32 -1 42 -7 63 -39 14
-21 34 -69 44 -105 11 -36 22 -71 26 -77 9 -15 25 -12 25 5 0 8 8 16 18 16 16
1 16 2 0 6 -10 2 -18 9 -18 15 0 5 8 7 18 4 16 -6 16 -5 0 7 -10 8 -15 17 -11
20 3 4 1 7 -5 7 -7 0 -12 4 -12 9 0 5 19 4 43 -2 33 -8 58 -26 115 -85 65 -68
91 -105 61 -86 -8 5 -8 1 0 -14 18 -33 12 -39 -11 -12 -17 20 -20 21 -14 5 5
-11 11 -28 13 -38 8 -26 26 -15 39 22 10 31 12 32 27 16 10 -9 14 -21 11 -27
-4 -7 -2 -8 4 -4 7 4 12 3 12 -2 0 -5 11 -15 25 -22 18 -10 22 -16 13 -22 -10
-6 -9 -8 3 -8 22 0 48 -30 28 -31 -8 0 -4 -4 9 -9 12 -5 22 -14 22 -19 0 -5
-10 -7 -22 -5 -13 2 -17 2 -10 -2 6 -3 10 -10 7 -14 -3 -5 0 -12 6 -16 8 -4 9
-3 5 4 -4 7 -3 12 3 12 15 0 40 -40 47 -75 7 -39 20 -56 67 -84 73 -45 106
-111 112 -231 3 -39 7 -76 10 -83 4 -7 0 -4 -8 6 -10 12 -17 14 -22 7 -12 -19
-26 0 -14 21 6 12 9 23 6 25 -2 2 -9 -7 -17 -20 -7 -13 -23 -26 -36 -29 -23
-4 -23 -4 -5 22 22 31 43 71 38 71 -2 0 -19 -22 -38 -50 -32 -47 -49 -61 -49
-41 0 5 6 16 13 23 16 16 37 53 37 65 0 4 -8 -4 -18 -20 -27 -40 -34 -21 -11
27 l20 41 -20 -25 c-17 -21 -21 -22 -21 -7 0 10 7 30 16 45 15 25 15 26 0 7
-14 -16 -18 -17 -25 -6 -6 9 -4 19 5 28 18 19 18 29 0 14 -11 -9 -18 -5 -34
21 -16 27 -19 45 -15 98 4 63 -7 120 -25 120 -5 0 -7 -12 -5 -27 4 -22 2 -25
-6 -13 -16 22 -13 8 4 -28 11 -21 13 -43 9 -73 l-7 -42 -18 44 c-10 24 -18 38
-18 31 -1 -7 22 -58 49 -114 46 -93 50 -107 50 -172 0 -62 -3 -74 -25 -95 -14
-13 -25 -27 -25 -32 0 -5 -14 1 -31 13 -23 18 -44 23 -85 22 -41 0 -53 3 -49
13 17 43 17 46 -2 23 l-21 -25 -7 27 c-4 15 -4 32 0 38 9 14 -4 52 -16 45 -5
-4 -9 -11 -9 -16 0 -6 5 -7 10 -4 6 3 10 0 10 -8 0 -25 -14 -28 -26 -5 -10 18
-9 27 4 47 16 26 16 26 -4 9 -29 -26 -41 -22 -17 5 38 41 69 132 53 157 -4 7
-10 -3 -15 -26 -7 -40 -31 -94 -41 -94 -4 0 -4 10 -1 21 3 12 2 18 -3 13 -4
-5 -10 -18 -12 -28 -5 -28 -38 -30 -39 -3 -1 18 -2 19 -6 4 -4 -15 -12 -17
-41 -13 -91 13 -182 17 -182 8 0 -15 48 -28 110 -31 116 -5 137 -18 205 -126
35 -56 36 -58 9 -35 l-28 25 21 -30 c22 -33 21 -64 -2 -45 -11 9 -12 7 -8 -8
7 -27 -12 -88 -26 -84 -8 1 -9 -3 -3 -15 12 -23 12 -103 1 -103 -5 0 -9 4 -9
8 0 5 -7 17 -16 28 -15 19 -16 19 -9 -1 4 -11 10 -26 13 -34 4 -10 1 -13 -9
-9 -15 6 -42 -16 -32 -26 4 -3 -1 -6 -11 -6 -9 0 -15 -4 -11 -9 3 -6 -2 -14
-11 -19 -9 -5 -17 -13 -17 -18 -1 -5 -5 -8 -9 -7 -4 2 -5 -3 -2 -11 3 -7 -1
-20 -9 -27 -7 -8 -12 -19 -10 -25 4 -12 -36 -33 -99 -54 -21 -6 -38 -18 -38
-26 0 -18 10 -17 34 1 33 25 43 16 12 -11 -15 -14 -26 -27 -24 -29 3 -3 24 11
47 31 23 20 44 34 47 31 3 -2 -14 -21 -37 -41 -49 -41 -43 -49 8 -10 36 27 46
19 13 -11 -11 -10 -18 -20 -16 -23 11 -11 44 38 60 88 10 30 27 70 38 87 21
35 95 103 112 103 5 0 22 -15 37 -32 36 -44 47 -30 14 17 -14 21 -26 48 -26
61 -1 13 -2 30 -3 37 -3 21 21 104 40 136 34 58 115 46 163 -24 13 -19 27 -35
32 -35 12 0 11 37 -1 45 -11 7 -3 33 19 59 35 41 105 59 159 42 25 -8 62 -118
62 -185 0 -26 -16 -92 -40 -160 -21 -64 -47 -147 -55 -185 -28 -119 -55 -155
-135 -177 -59 -16 -150 -56 -171 -75 -12 -11 -22 -12 -43 -4 -54 20 -98 12
-160 -30 -69 -47 -97 -49 -150 -14 -22 15 -75 40 -120 55 -45 16 -83 34 -84
39 -2 6 -8 8 -12 5 -5 -3 -12 0 -16 6 -4 8 -3 9 4 5 7 -4 12 -2 12 4 0 7 6 8
19 1 10 -6 21 -8 24 -5 3 3 16 0 29 -6 22 -11 22 -11 -2 9 l-25 21 30 -11 c17
-6 57 -11 89 -11 52 0 63 -4 79 -25 20 -26 56 -44 70 -36 4 3 -11 18 -34 35
l-41 30 23 24 c30 32 17 42 -18 14 -25 -19 -35 -21 -102 -16 -81 7 -105 15
-75 27 16 6 15 8 -8 8 l-26 1 12 48 c7 26 27 76 43 112 43 92 74 186 80 245 4
36 13 58 34 80 35 38 84 138 93 190 6 35 5 38 -7 23 -8 -10 -16 -16 -19 -13
-2 3 -2 -9 0 -26 3 -22 1 -30 -7 -25 -7 5 -11 -2 -11 -18 0 -25 -14 -43 -23
-29 -2 5 -2 2 0 -5 1 -7 -4 -24 -13 -38 -13 -19 -19 -22 -30 -13 -12 9 -13 9
-8 -4 3 -9 1 -24 -4 -34 -9 -16 -11 -15 -17 9 -4 15 -13 32 -21 39 -11 9 -11
6 1 -17 8 -16 15 -47 14 -69 0 -34 -2 -37 -9 -17 -15 35 -19 26 -8 -15 7 -27
7 -38 -1 -41 -6 -2 -11 -19 -11 -38 0 -20 -4 -33 -9 -30 -5 4 -7 -2 -4 -12 2
-10 -14 -59 -36 -110 -22 -50 -48 -116 -57 -147 -18 -63 -45 -98 -69 -89 -9 4
-14 9 -11 11 3 3 -3 27 -14 54 -17 45 -17 50 -2 59 10 5 13 10 8 10 -4 0 0 8
11 18 10 9 13 13 6 8 -13 -9 -19 5 -6 17 11 12 15 79 3 72 -6 -3 -11 4 -11 17
-2 22 -2 22 -6 -2 l-5 -24 -15 24 c-9 16 -12 17 -7 5 13 -34 15 -99 5 -115 -9
-13 -13 -11 -27 9 -34 48 -78 92 -104 106 -15 8 -39 34 -53 58 -28 47 -94 111
-132 129 -19 9 -22 14 -14 24 6 8 16 11 23 7 6 -4 5 0 -2 9 -11 14 -10 18 3
26 9 5 18 13 18 18 1 5 11 9 21 8 17 -1 17 0 3 11 -21 15 -12 25 22 26 14 0
20 3 13 6 -23 9 -2 22 31 18 17 -3 60 -6 95 -9 68 -4 85 -12 62 -26 -13 -8
-12 -10 3 -10 10 0 15 -5 12 -11 -4 -6 -14 -8 -24 -5 -12 5 -11 2 3 -9 17 -13
17 -15 3 -21 -10 -3 -24 -4 -32 0 -24 9 -17 -4 8 -14 17 -8 12 -9 -23 -5 l-45
5 40 -13 c27 -9 40 -19 39 -30 -1 -9 2 -17 6 -17 5 0 14 -17 20 -37 7 -21 19
-48 26 -60 19 -30 39 -31 24 -2 -7 11 -20 47 -31 79 -17 53 -18 60 -3 89 9 18
14 46 12 63 -3 17 1 43 8 56 15 30 12 241 -5 284 -9 25 -6 34 29 84 21 31 40
60 42 65 2 6 25 5 58 -1 51 -10 189 -15 221 -8 7 2 21 12 31 23 18 20 18 20
33 1 8 -11 15 -29 16 -40 0 -12 3 -15 6 -8 7 17 -15 69 -32 76 -7 2 -31 -4
-52 -15 -33 -18 -49 -20 -123 -14 -47 4 -96 8 -110 10 -14 2 -31 4 -37 4 -7 1
-13 5 -13 11 0 5 -20 55 -46 111 l-45 101 38 67 c30 52 48 71 85 91 51 28 75
47 44 36 -10 -3 -25 -1 -32 5 -12 10 -13 9 -8 -5 7 -19 -6 -21 -25 -3 -11 10
-13 9 -8 -4 3 -8 -3 -20 -12 -26 -15 -9 -21 -4 -40 33 -13 24 -27 44 -32 44
-4 0 3 -19 16 -42 14 -24 25 -50 24 -58 0 -8 -7 -2 -15 13 -9 16 -18 26 -21
24 -3 -3 2 -16 11 -29 19 -27 21 -42 3 -35 -9 3 -13 -2 -12 -16 3 -34 -5 -49
-20 -37 -9 8 -11 4 -8 -15 5 -21 2 -24 -18 -20 -13 3 -53 8 -89 10 -86 8 -110
13 -140 33 -29 19 -60 24 -60 9 0 -6 -2 -8 -5 -5 -3 3 -2 13 1 22 5 14 9 15
16 4 8 -11 9 -10 6 1 -2 8 -11 15 -20 17 -16 2 -17 -8 -9 -58 2 -17 61 -37
126 -43 39 -4 87 -9 109 -11 46 -4 95 -32 76 -44 -8 -5 -7 -9 5 -14 10 -3 15
-12 11 -21 -3 -8 -2 -15 3 -15 4 0 13 -12 20 -27 11 -25 11 -25 -6 -13 -10 8
-4 -1 12 -19 24 -27 26 -33 10 -27 -19 7 -19 6 1 -16 30 -33 35 -44 28 -63 -6
-14 -8 -14 -27 2 -20 18 -20 18 -2 -9 17 -28 10 -37 -13 -18 -9 7 -9 7 -2 -2
15 -18 12 -31 -4 -25 -10 4 -13 1 -10 -7 3 -7 -3 -19 -12 -27 -11 -9 -15 -9
-10 -2 5 9 2 11 -8 7 -20 -8 -20 -10 6 -47 12 -17 16 -27 7 -22 -8 5 -7 0 4
-12 13 -15 15 -23 7 -28 -9 -5 -9 -10 -1 -18 14 -14 14 -30 0 -21 -8 5 -8 1 0
-14 6 -11 11 -31 11 -44 0 -19 -2 -20 -11 -8 -9 12 -9 11 -4 -5 17 -49 18 -58
5 -50 -9 5 -11 4 -6 -3 4 -7 9 -21 11 -33 3 -16 1 -18 -9 -10 -11 9 -12 6 -8
-14 l4 -25 -85 0 -84 0 -7 39 c-3 22 -11 43 -17 47 -8 4 -9 -5 -4 -33 5 -35 3
-42 -17 -55 -40 -26 -88 -81 -100 -114 -10 -29 -14 -31 -42 -24 -17 5 -63 11
-101 14 -75 5 -105 13 -105 27 0 16 -125 142 -167 169 l-41 26 26 53 c42 81
116 168 157 182 19 7 35 17 35 21 0 11 -32 10 -50 -2 -12 -7 -17 -1 -26 28
l-12 37 -1 -38 c-1 -26 -5 -36 -12 -31 -7 4 -10 1 -7 -7 7 -18 -10 -51 -23
-44 -5 4 -9 -3 -9 -13 0 -11 -7 -25 -15 -32 -13 -11 -14 -10 -9 4 3 9 1 16 -4
16 -6 0 -9 -8 -7 -18 1 -10 -4 -29 -12 -42 -8 -14 -12 -18 -10 -9 3 9 2 22 -3
28 -5 9 -7 4 -7 -13 0 -15 -6 -47 -13 -71 -10 -37 -16 -44 -31 -40 -11 3 -28
8 -39 11 -18 5 -25 22 -21 47 1 5 -3 6 -8 2 -6 -3 -7 -13 -4 -21 5 -14 3 -15
-15 -5 -14 7 -23 22 -23 39 -2 24 -2 25 -6 4 -5 -28 -27 -24 -31 6 -2 12 -7
22 -12 22 -5 0 -7 -7 -4 -15 4 -8 1 -15 -5 -15 -17 0 -33 40 -29 75 2 19 0 31
-4 29 -4 -3 -8 -21 -8 -40 0 -24 -4 -34 -12 -31 -7 2 -13 10 -13 18 0 8 -8 13
-18 11 -19 -3 -37 31 -31 61 1 10 -1 15 -6 12 -5 -3 -7 -14 -5 -25 2 -11 0
-20 -4 -20 -17 0 -38 36 -35 60 3 18 2 21 -5 10 -5 -8 -7 -18 -4 -23 3 -5 0
-8 -8 -5 -7 2 -16 15 -20 29 -5 17 -7 19 -8 6 -2 -28 -21 -9 -22 21 -1 17 -3
21 -6 10 -7 -27 -19 -21 -31 15 -7 17 -10 21 -8 9 4 -23 4 -23 -15 -6 -10 9
-20 31 -20 48 -2 30 -2 30 -6 3 -5 -30 -9 -28 -55 33 l-27 36 24 49 c13 28 27
77 31 110 6 53 9 77 13 148 1 18 22 43 59 69 15 10 20 21 16 32 -6 15 -7 15
-20 -1 -13 -17 -13 -17 -14 2 -1 17 -3 17 -11 -5 -8 -20 -12 -22 -19 -10 -8
12 -10 11 -10 -5 0 -11 -7 -28 -15 -38 -13 -18 -14 -17 -18 10 -2 15 -2 1 0
-32 l4 -60 -20 35 c-25 44 -27 31 -3 -19 11 -22 16 -46 12 -57 -7 -18 -8 -17
-14 4 -4 13 -10 21 -13 18 -3 -3 2 -17 11 -30 9 -14 16 -31 16 -38 0 -9 -3 -9
-10 2 -7 11 -8 5 -3 -20 6 -31 5 -34 -10 -22 -14 12 -15 11 -4 -17 12 -32 2
-55 -13 -31 -8 13 -10 12 -10 -2 0 -9 5 -18 10 -20 7 -2 4 -16 -6 -37 -16 -32
-18 -33 -25 -14 -4 12 -14 25 -21 29 -10 6 -10 5 0 -9 23 -28 8 -43 -17 -16
-15 16 -20 19 -16 7 5 -12 2 -18 -6 -19 -8 -1 -24 -3 -37 -4 -12 -1 -27 5 -32
14 -8 14 -9 13 -10 -4 -1 -18 -2 -18 -13 -4 -11 15 -14 15 -26 1 -27 -28 9
-40 108 -35 l89 5 17 -35 c45 -96 345 -322 519 -391 113 -45 117 -48 106 -62
-8 -8 -7 -12 2 -11 34 1 47 -4 42 -17 -3 -8 4 -16 20 -20 29 -7 35 -25 9 -27
-10 -1 -4 -4 12 -8 17 -4 29 -12 28 -18 -2 -7 6 -15 17 -18 23 -7 26 -21 8
-28 -7 -2 -4 -3 8 -1 34 6 35 -6 4 -50 -27 -39 -49 -96 -36 -96 3 0 17 22 30
48 30 60 49 76 78 68 13 -4 52 -9 88 -12 116 -10 188 -52 247 -144 21 -33 43
-60 49 -60 18 0 88 -71 118 -118 32 -51 55 -135 49 -177 -3 -16 -13 -45 -24
-63 -16 -27 -19 -51 -18 -150 2 -125 -4 -149 -51 -216 -16 -24 -44 -73 -61
-110 -36 -76 -65 -101 -151 -127 -96 -30 -118 -27 -169 28 -25 27 -54 62 -66
78 -15 20 -22 25 -23 14 0 -21 49 -88 89 -122 18 -15 27 -27 21 -27 -6 0 -34
21 -62 47 -49 46 -58 43 -15 -5 22 -23 11 -31 -13 -9 -8 6 -2 -2 13 -19 35
-39 23 -53 -17 -17 -17 16 -24 19 -16 8 8 -11 19 -23 24 -26 4 -4 3 -9 -3 -13
-6 -4 -16 2 -23 14 -7 11 -17 20 -22 20 -5 0 -2 -8 7 -18 21 -23 22 -33 2 -26
-8 4 -15 2 -15 -3 0 -13 -32 -13 -49 1 -12 9 -13 8 -8 -6 3 -10 2 -18 -3 -18
-5 0 -14 8 -20 18 -9 14 -10 13 -4 -8 l7 -25 -22 19 c-18 17 -21 17 -15 3 3
-10 1 -17 -5 -17 -6 0 -11 6 -11 13 0 8 -4 7 -10 -3 -9 -13 -13 -12 -27 5 -13
16 -15 17 -10 3 7 -21 -13 -24 -31 -6 -7 7 -12 8 -12 3 0 -5 -7 0 -15 11 -13
16 -14 16 -9 1 5 -13 2 -16 -10 -11 -9 3 -16 10 -16 16 0 5 -5 6 -11 3 -5 -4
-19 1 -30 11 -10 9 -19 13 -19 9 0 -4 -9 0 -20 10 -11 10 -20 14 -20 10 0 -4
-8 -2 -17 7 -10 8 -31 19 -46 26 -15 6 -30 19 -34 28 -4 10 -8 12 -12 5 -10
-16 -103 22 -112 45 -7 17 -8 17 -8 1 -1 -14 -4 -15 -20 -5 -11 7 -22 21 -25
31 -2 10 -9 16 -15 13 -13 -8 -51 15 -51 31 0 6 -4 15 -10 18 -6 4 -7 -1 -3
-11 6 -16 4 -16 -25 1 -17 10 -35 28 -42 39 -7 14 -9 15 -6 3 5 -16 4 -16 -19
-1 -14 9 -22 21 -18 27 3 5 1 7 -5 4 -15 -10 -42 3 -42 20 0 8 -4 11 -10 8 -5
-3 -21 5 -35 19 -14 14 -25 22 -25 19 0 -3 -8 4 -19 15 -10 12 -23 22 -28 22
-6 0 -16 6 -22 13 -12 15 -89 42 -108 38 -7 -1 -13 6 -13 15 0 12 -4 14 -12 7
-17 -13 -82 13 -72 29 4 7 3 8 -5 4 -7 -4 -19 -5 -29 -1 -14 5 -14 7 -2 16 12
9 11 10 -4 5 -25 -8 -58 2 -50 16 4 6 -2 8 -16 3 -19 -6 -22 -4 -17 9 5 13 3
15 -11 8 -10 -6 -27 -5 -44 2 -22 10 -25 15 -16 31 7 14 4 13 -10 -4 -21 -26
-45 -21 -36 7 5 16 5 16 -6 0 -6 -10 -18 -18 -25 -18 -18 0 -18 4 -4 33 7 16
4 14 -11 -5 -12 -16 -28 -28 -36 -28 -17 0 -17 5 -4 31 6 10 8 19 6 19 -3 0
-12 -13 -21 -30 -20 -38 -38 -40 -25 -2 9 25 9 26 -5 8 -8 -10 -16 -24 -19
-30 -3 -7 -8 -7 -14 3 -7 9 -12 10 -16 2 -4 -6 -17 -11 -29 -11 -16 0 -18 3
-9 12 7 7 12 15 12 19 0 4 -13 -6 -29 -22 -33 -33 -53 -38 -44 -11 4 12 1 11
-10 -4 -9 -12 -26 -24 -37 -27 -18 -4 -20 -2 -14 16 5 19 3 18 -15 -5 -28 -35
-65 -39 -56 -5 6 21 5 21 -6 2 -7 -11 -12 -21 -13 -21 -1 -1 -12 -5 -24 -9
-22 -6 -23 -5 -11 17 l12 23 -22 -19 c-32 -29 -53 -30 -45 -3 6 22 6 22 -11 0
-9 -13 -25 -23 -36 -23 -17 0 -18 3 -9 23 9 18 7 17 -12 -6 -30 -35 -64 -38
-48 -4 9 17 6 16 -10 -5 -27 -35 -54 -38 -45 -5 5 18 3 17 -10 -5 -18 -31 -30
-37 -21 -10 4 11 0 9 -10 -5 -22 -31 -37 -29 -30 5 5 24 4 23 -12 -7 -9 -19
-23 -37 -30 -39 -11 -3 -12 0 -3 16 6 11 11 24 11 29 -1 4 -7 -4 -16 -19 -8
-15 -23 -32 -35 -38 -18 -10 -19 -9 -14 17 l5 28 -10 -26 c-6 -14 -22 -31 -36
-37 -23 -11 -24 -10 -14 7 5 11 10 26 10 33 0 7 -8 -2 -18 -21 -9 -19 -28 -38
-42 -43 -20 -7 -23 -7 -13 3 7 7 13 17 13 22 0 5 -9 -2 -21 -17 -11 -14 -27
-26 -36 -26 -13 0 -13 3 -3 15 7 9 11 18 8 21 -3 2 -12 -6 -21 -19 -17 -26
-53 -41 -63 -26 -3 5 -1 9 5 9 6 0 16 10 22 23 10 19 7 18 -19 -7 -26 -24 -36
-27 -66 -22 -20 4 -44 18 -55 33 -21 26 -19 49 2 36 7 -4 5 2 -3 12 -14 17
-13 18 13 11 21 -5 27 -4 21 5 -5 8 -2 10 8 7 8 -4 21 -2 29 3 10 6 6 9 -15 9
-24 0 -27 2 -16 15 11 13 10 14 -5 9 -16 -7 -16 -5 -1 25 9 17 14 31 12 31 -3
0 -13 -15 -22 -32 -22 -43 -30 -20 -9 24 14 28 14 30 0 14 -8 -11 -15 -25 -15
-30 0 -6 -5 -4 -11 4 -8 12 -9 10 -7 -9 2 -15 -3 -26 -12 -28 -12 -4 -12 -3
-1 5 8 6 9 12 3 16 -11 7 -25 -21 -16 -35 12 -20 -14 -7 -40 20 -33 35 -72
151 -53 163 9 6 9 8 -2 8 -7 0 -11 6 -8 14 3 8 1 17 -6 20 -9 3 -8 8 3 18 8 7
17 24 19 38 1 14 6 27 10 30 11 9 9 100 -3 94 -6 -3 0 5 14 17 24 22 25 22 3
16 -29 -7 -29 7 0 29 15 11 16 15 5 11 -25 -9 -22 7 4 27 16 12 18 16 5 12
-27 -8 -20 12 11 29 15 9 18 14 8 10 -16 -5 -17 -3 -6 10 7 8 22 15 34 16 20
0 20 1 1 8 -19 8 -19 8 1 19 12 6 24 9 27 6 3 -3 4 3 3 12 -1 23 85 77 122 77
15 0 56 -14 92 -32 35 -17 69 -30 75 -27 5 2 10 -9 10 -25 1 -16 -5 -31 -13
-34 -7 -2 -10 0 -7 5 18 28 -100 -20 -150 -61 -22 -19 -42 -33 -45 -32 -3 1
-6 -8 -6 -20 -4 -56 -9 -67 -24 -62 -11 4 -10 1 3 -9 17 -13 24 -36 10 -36 -3
0 -14 7 -24 16 -17 15 -18 14 -16 -12 2 -23 8 -30 27 -31 l25 -3 -24 10 c-29
13 -24 22 7 13 33 -8 21 -28 -17 -28 -26 0 -29 -2 -16 -11 18 -13 9 -25 -13
-17 -9 4 -13 2 -9 -5 4 -6 -2 -26 -13 -44 -11 -19 -22 -45 -24 -58 -2 -14 -5
-25 -6 -25 -1 0 -3 -16 -4 -35 -1 -19 -4 -40 -8 -45 -4 -6 -3 -17 2 -24 12
-21 30 19 31 71 3 87 68 187 114 173 11 -4 34 -9 50 -12 54 -8 59 -11 45 -28
-17 -20 -24 -128 -8 -119 7 5 9 0 6 -14 -4 -15 -2 -19 8 -15 16 6 16 6 5 55
-6 26 -6 36 2 31 6 -4 8 2 5 15 -4 12 -2 22 2 22 13 0 31 65 27 94 -3 27 -21
37 -23 13 0 -6 -2 -18 -2 -24 -2 -17 -73 -17 -95 0 -24 17 -31 74 -15 122 27
80 148 126 236 89 51 -22 106 -84 132 -150 13 -32 27 -63 32 -68 25 -29 -10
112 -36 144 -7 8 -18 35 -25 58 -7 24 -14 42 -17 39 -2 -2 0 -16 5 -31 7 -16
7 -26 1 -26 -5 0 -14 15 -19 33 -6 21 -10 25 -10 12 -1 -18 -3 -18 -21 5 -13
17 -20 20 -20 10 -1 -11 -4 -10 -15 4 -8 11 -15 14 -15 7 0 -7 -4 -10 -9 -7
-5 4 -8 22 -6 42 2 27 11 43 34 61 17 14 28 29 25 34 -4 6 -13 4 -24 -6 -32
-29 -82 -30 -138 -1 -28 14 -58 26 -65 26 -17 0 -9 54 21 140 39 111 61 148
97 167 20 10 31 10 88 -1 15 -3 27 -3 27 0 0 4 -18 33 -40 66 -37 56 -42 72
-43 136 0 12 -5 21 -11 19 -6 -2 -10 -16 -9 -31 2 -24 0 -26 -15 -14 -11 9
-10 3 6 -23 12 -20 23 -45 25 -56 2 -12 8 -28 15 -35 6 -8 9 -18 5 -21 -15
-16 -49 -5 -81 26 -19 18 -30 25 -27 15 4 -10 11 -18 16 -18 13 0 30 -38 20
-44 -5 -3 -22 4 -37 16 -25 20 -27 20 -14 3 8 -11 19 -23 24 -26 4 -4 3 -10
-3 -14 -7 -4 -20 -1 -29 6 -16 13 -15 12 0 -7 14 -15 15 -23 6 -32 -8 -8 -15
-9 -25 0 -11 8 -12 7 -7 -6 3 -9 10 -16 15 -16 6 0 5 -9 -1 -20 -8 -15 -17
-19 -33 -15 -19 5 -20 5 -5 -5 23 -14 24 -45 2 -36 -14 5 -15 4 -5 -8 16 -19
6 -37 -17 -30 -16 5 -16 5 0 -6 19 -12 13 -44 -6 -33 -7 5 -7 2 1 -8 8 -10 9
-20 2 -29 -8 -13 -10 -13 -19 0 -5 8 -10 10 -10 4 0 -6 7 -17 15 -24 8 -7 15
-17 15 -23 0 -6 -11 0 -25 13 -27 26 -35 21 -9 -5 22 -22 9 -33 -19 -16 -20
13 -21 13 -9 -1 11 -14 9 -19 -9 -32 -21 -14 -25 -14 -43 2 -19 16 -20 16 -7
0 15 -20 6 -42 -15 -34 -8 3 -11 0 -7 -10 6 -16 -12 -20 -22 -4 -3 6 -11 10
-17 10 -7 0 -6 -5 2 -15 16 -19 5 -54 -12 -37 -7 7 -16 12 -22 12 -6 0 -5 -5
2 -12 16 -16 15 -31 -2 -25 -9 4 -12 0 -9 -12 2 -10 -2 -25 -11 -33 -8 -9 -12
-18 -9 -22 3 -3 -2 -9 -11 -12 -27 -10 -46 17 -53 76 -6 49 -5 53 12 46 18 -7
18 -6 2 12 -21 23 -13 53 11 45 14 -4 15 -3 2 5 -12 9 -12 14 0 36 10 21 18
24 39 20 25 -6 25 -6 6 9 -16 12 -17 18 -7 30 7 8 23 13 35 11 l22 -5 -23 12
c-32 17 -27 26 12 21 20 -2 37 1 41 9 5 8 4 10 -4 5 -21 -14 -71 4 -71 25 0
16 3 18 19 9 11 -5 32 -10 48 -9 23 0 19 3 -19 15 -45 14 -71 42 -28 31 11 -3
23 -1 26 4 3 5 2 9 -3 8 -25 -4 -42 2 -37 15 3 8 14 12 27 9 l22 -4 -22 13
c-21 13 -21 14 -4 46 15 30 19 32 30 18 8 -9 19 -16 25 -16 6 0 2 7 -8 15 -11
8 -18 16 -15 18 27 18 61 28 79 22 16 -5 20 -4 15 5 -5 8 -2 10 11 7 11 -4 29
0 42 7 19 10 21 14 9 24 -9 8 -24 9 -47 2 -40 -12 -51 -5 -24 15 10 8 15 15
10 15 -5 0 -18 -7 -27 -16 -17 -16 -18 -15 -14 14 2 17 7 37 11 44 5 7 9 19
10 25 1 7 9 20 18 29 19 18 21 28 4 18 -7 -5 -8 -3 -3 6 4 7 9 35 11 62 5 90
27 127 78 129 l31 1 -30 7 c-26 6 -27 8 -11 14 10 4 28 5 40 2 17 -5 18 -4 6
4 -16 11 -8 15 24 11 10 -1 16 3 12 8 -3 5 6 7 22 5 26 -4 26 -4 8 11 -11 9
-28 16 -38 16 -22 0 -22 -3 2 73 27 80 78 130 127 124 40 -6 83 -32 83 -52 0
-24 19 -26 41 -4 l21 21 -21 22 c-12 12 -21 28 -21 35 0 7 -4 10 -8 7 -4 -2
-14 -1 -21 3 -10 7 -11 14 -1 32 11 24 11 24 -10 -1 l-21 -25 7 25 c7 25 7 25
-15 6 -29 -26 -26 -12 12 64 49 99 122 136 178 91 l23 -19 -38 -38 c-21 -22
-47 -58 -58 -81 -18 -41 -37 -62 -24 -27 5 14 4 15 -9 4 -12 -10 -15 -10 -15
1 0 11 -2 11 -10 -1 -5 -8 -10 -19 -10 -25 0 -5 5 -3 10 5 7 11 10 11 10 2 0
-7 5 -10 11 -6 8 4 9 -1 4 -16 l-7 -22 21 21 c11 11 29 38 40 60 11 21 32 48
46 59 14 11 25 25 25 32 0 6 5 8 10 5 6 -3 10 0 10 7 0 9 3 9 10 -2 7 -12 10
-12 10 -1 0 7 6 11 15 7 8 -3 15 0 15 7 0 8 4 6 10 -3 9 -13 10 -13 10 0 0 13
1 13 10 0 6 -10 10 -11 10 -2 0 19 20 14 21 -5 0 -15 2 -15 8 2 7 18 9 17 19
-10 12 -29 12 -30 7 -2 -3 15 -1 27 5 27 5 0 11 -9 11 -20 2 -32 4 -38 11 -45
4 -4 5 5 3 21 -4 26 -2 24 15 -11 11 -22 20 -33 20 -25 1 26 20 -11 21 -40 0
-22 1 -23 8 -5 7 18 9 17 19 -10 6 -17 11 -24 11 -16 1 17 -55 118 -82 148
-23 26 -23 24 18 47 21 12 23 15 8 11 -33 -9 -19 21 15 34 20 7 22 10 8 10
-29 1 1 31 33 32 25 1 25 1 3 8 l-24 6 27 25 c15 14 30 25 33 25 4 0 6 4 4 8
-1 5 7 11 18 14 11 3 20 9 20 13 0 4 20 13 45 20 35 10 52 10 71 1 15 -6 23
-7 19 -1 -4 6 5 10 19 10 14 0 27 -4 31 -10 3 -5 12 -7 20 -4 8 3 28 -1 45 -9
17 -9 28 -12 25 -8 -2 5 9 11 25 14 16 4 34 15 40 27 11 20 -3 30 -15 10 -4
-6 -11 -8 -16 -4 -5 3 -16 1 -24 -6 -10 -9 -19 -8 -37 1 -13 7 -24 12 -25 11
-10 -7 -33 0 -28 8 3 6 1 10 -4 10 -6 0 -11 -5 -11 -11 0 -5 -5 -7 -11 -4 -14
9 -124 9 -138 1 -23 -15 -10 17 19 44 35 33 112 60 134 48 12 -7 14 -5 9 8 -5
14 -3 15 16 5 12 -7 27 -10 34 -7 7 2 4 5 -6 5 -10 1 -16 5 -12 10 3 5 20 8
38 7 17 -2 24 -1 15 1 -10 2 -18 9 -18 14 0 6 9 7 20 4 13 -4 20 -2 18 5 -2 7
19 26 46 43 64 40 132 47 179 19 22 -15 52 -22 93 -23 32 -1 62 -7 66 -13 5
-8 8 -7 8 2 0 6 7 12 15 12 8 0 15 -6 16 -12 0 -10 2 -10 6 0 7 18 23 15 24
-5 0 -16 1 -15 8 2 7 16 9 17 17 4 5 -8 18 -15 29 -14 11 0 24 -10 30 -22 10
-22 25 -31 25 -15 0 5 -14 30 -31 56 -37 55 -34 61 39 85 43 15 152 20 259 13z
m-1188 -308 c30 -6 31 -8 15 -25 -16 -18 -18 -18 -30 -1 -13 16 -14 16 -8 0 3
-10 3 -26 0 -35 -6 -15 -8 -15 -16 -3 -8 12 -10 10 -10 -9 0 -17 -4 -22 -16
-17 -8 3 -13 2 -9 -3 9 -15 -7 -43 -21 -37 -7 3 -11 0 -9 -7 3 -7 0 -19 -5
-27 -9 -13 -11 -13 -20 0 -7 11 -8 5 -3 -20 6 -31 5 -34 -10 -22 -13 11 -15
10 -10 -10 4 -22 4 -22 -10 -5 -11 14 -16 15 -20 5 -4 -10 -8 -10 -16 2 -7 10
-11 11 -11 3 0 -7 -6 -13 -14 -13 -8 0 -17 6 -19 13 -3 7 -6 5 -6 -5 -1 -22
-17 -23 -25 -2 -17 46 80 165 167 205 46 20 59 22 106 13z m2111 -529 c7 -8 8
-15 2 -15 -5 0 -15 7 -22 15 -7 8 -8 15 -2 15 5 0 15 -7 22 -15z m-3120 -1170
c0 -8 -8 -11 -20 -8 -11 3 -20 11 -20 18 0 8 8 11 20 8 11 -3 20 -11 20 -18z
m-1 -40 c2 -14 -1 -16 -15 -11 -13 4 -11 0 6 -14 21 -17 23 -21 10 -30 -10 -6
-11 -10 -3 -10 13 0 12 -37 -3 -105 l-7 -30 -9 24 c-5 14 -11 64 -15 112 -5
82 -5 87 13 85 11 -2 21 -11 23 -21z m3562 -162 c13 -16 12 -17 -3 -4 -17 13
-22 21 -14 21 2 0 10 -8 17 -17z m-2254 -259 c40 -8 266 -214 252 -228 -2 -2
-31 20 -64 51 -68 62 -160 130 -220 163 -22 11 -32 15 -21 8 168 -118 323
-245 312 -255 -3 -3 -31 15 -63 39 -102 78 -237 156 -353 205 -23 10 -21 11
30 20 53 10 70 9 127 -3z m143 -26 c14 -6 33 -11 43 -13 39 -8 82 -42 107 -85
58 -99 121 -284 91 -265 -7 4 -10 14 -7 22 3 8 1 11 -4 8 -10 -6 -32 10 -41
30 -2 6 -8 9 -13 7 -5 -2 -6 4 -3 12 4 9 1 18 -5 22 -7 4 -8 3 -4 -4 4 -7 2
-12 -4 -12 -6 0 -13 7 -16 15 -4 8 -10 12 -15 9 -5 -3 -9 -1 -9 4 0 16 13 22
27 11 22 -19 15 -3 -9 17 -12 10 -18 13 -13 5 5 -9 4 -12 -3 -7 -6 4 -9 12 -6
19 5 13 -110 137 -181 195 l-40 32 40 -6 c22 -4 51 -11 65 -16z m-204 -62
c174 -86 364 -222 347 -249 -4 -6 0 -8 11 -4 9 4 15 3 11 -2 -3 -6 3 -15 12
-21 35 -22 -32 8 -197 87 -63 31 -153 70 -200 88 -104 41 -330 108 -337 101
-3 -2 15 -10 38 -16 80 -20 273 -82 314 -100 22 -10 75 -33 117 -51 42 -18 76
-35 75 -36 -2 -1 -36 7 -77 17 -41 11 -84 20 -95 20 -11 0 -33 7 -49 15 -32
17 -49 20 -26 5 10 -7 -9 -8 -60 -3 -41 4 -89 7 -107 7 -17 1 -29 4 -26 9 2 4
-1 7 -6 7 -6 0 -11 -3 -11 -8 0 -4 -53 -8 -117 -10 -141 -3 -209 -7 -243 -16
-14 -3 -47 -8 -75 -11 -58 -5 -167 -28 -208 -44 -36 -14 -37 -14 -37 4 0 9 9
15 23 16 17 0 18 2 6 7 -12 5 -14 13 -8 30 5 12 13 22 19 22 6 0 9 4 6 9 -8
12 151 66 184 63 18 -2 21 0 11 6 -10 8 -7 11 15 16 32 7 126 -10 278 -48 55
-14 101 -24 103 -22 5 5 -142 45 -242 65 -94 20 -96 26 -9 45 28 6 245 -49
384 -99 25 -9 40 -12 35 -6 -9 8 -235 82 -335 110 -23 6 -28 10 -15 11 40 4
111 10 165 14 30 2 71 7 90 11 28 5 55 -1 126 -28 50 -19 116 -49 149 -66 32
-17 60 -29 63 -26 7 6 -173 92 -235 112 -29 9 -53 20 -53 25 0 22 69 2 186
-56z m479 -45 c27 -7 55 -17 62 -23 16 -13 18 -151 2 -214 -10 -40 -14 -44
-40 -42 -25 2 -30 7 -35 38 -10 58 -35 131 -70 204 -19 39 -34 71 -34 73 0 1
15 -3 33 -11 17 -8 54 -19 82 -25z m167 -98 c35 -27 65 -51 66 -55 2 -5 8 -8
14 -8 5 0 16 -7 24 -15 13 -13 13 -18 0 -42 -30 -58 -96 -102 -125 -84 -10 7
-4 17 26 45 32 28 39 41 35 61 -5 30 -18 32 -32 5 -6 -11 -16 -17 -22 -14 -6
4 -8 3 -5 -3 5 -8 -29 -47 -43 -48 -3 0 -11 -4 -19 -9 -11 -7 -13 -5 -6 10 5
10 10 60 12 109 1 50 3 91 3 93 0 7 16 -3 72 -45z m-824 -27 c159 -6 158 -6
142 -16 -10 -7 0 -8 33 -6 26 2 50 0 52 -4 2 -4 26 -10 52 -14 61 -8 205 -55
199 -65 -3 -4 4 -7 16 -7 12 1 23 -5 26 -13 3 -9 -1 -11 -16 -7 -44 14 -180
31 -237 30 -33 -1 -96 -7 -140 -13 -44 -7 -98 -15 -120 -18 -22 -3 -44 -9 -50
-13 -5 -4 -26 -11 -45 -15 -62 -13 -203 -76 -272 -122 -69 -45 -198 -176 -198
-201 0 -7 -5 -10 -12 -6 -7 4 -8 3 -4 -4 4 -7 4 -17 1 -22 -7 -12 -52 39 -47
53 1 5 -2 6 -7 3 -4 -3 -21 12 -36 34 -25 36 -27 43 -15 65 15 28 97 115 160
170 25 22 44 44 42 49 -2 4 4 6 12 3 10 -4 13 -1 10 7 -4 11 24 41 81 85 6 4
17 5 24 3 9 -3 11 0 6 8 -6 10 -4 12 9 7 9 -4 15 -3 11 2 -3 5 9 14 27 20 39
12 190 12 182 0 -3 -5 2 -6 10 -3 9 3 13 11 9 17 -3 6 -1 7 6 3 6 -4 46 -9 89
-10z m-410 -20 c-4 6 7 10 30 11 l37 1 -30 -15 c-17 -9 -93 -79 -169 -157 -76
-78 -143 -140 -147 -139 -5 2 -6 -4 -3 -12 9 -23 -24 -18 -36 5 -6 11 -8 25
-5 30 3 5 54 42 113 81 59 39 109 74 112 76 18 19 -89 -45 -153 -91 -43 -31
-80 -56 -82 -56 -13 0 -12 37 2 54 10 12 11 15 3 9 -18 -17 -30 -16 -30 1 0 8
33 38 73 67 39 29 77 57 82 62 18 18 -18 -5 -87 -54 -37 -27 -70 -45 -73 -40
-5 9 32 45 85 84 25 18 25 18 -5 1 -16 -9 -42 -28 -57 -42 -25 -23 -28 -24
-28 -7 0 10 10 30 23 44 l22 26 -22 -19 c-13 -11 -23 -14 -23 -8 0 14 37 35
49 27 5 -3 11 -1 13 4 1 5 36 19 76 30 40 11 70 16 67 10 -4 -5 -1 -9 4 -9 6
0 11 5 11 12 0 6 2 9 5 6 3 -2 31 1 62 7 43 9 62 9 72 1 9 -7 12 -7 9 0z
m1392 -56 c12 -7 9 -16 -19 -52 l-32 -43 38 42 c35 38 40 41 61 29 l22 -12
-27 -25 c-53 -47 -141 -82 -117 -46 5 7 2 6 -6 -3 -8 -8 -23 -16 -33 -16 -13
-2 -6 9 22 32 22 19 46 50 52 69 14 38 17 39 39 25z m-532 -64 c3 -3 -3 -6
-14 -7 -10 -1 -30 -2 -44 -3 -14 0 -31 -5 -37 -9 -8 -5 -13 -4 -13 2 0 6 -5
11 -11 11 -5 0 -8 -4 -4 -9 5 -9 -18 -16 -75 -24 -8 -2 -20 -6 -27 -10 -6 -4
-19 -4 -30 -1 -14 5 -15 4 -4 -4 11 -8 -1 -15 -49 -30 -38 -11 -58 -22 -49
-25 8 -4 -2 -5 -21 -2 -24 3 -29 2 -15 -3 21 -9 20 -10 -135 -95 -128 -69
-312 -215 -340 -268 -5 -9 23 17 63 56 64 63 275 215 299 215 6 0 -13 -18 -40
-40 -28 -21 -53 -44 -57 -49 -3 -6 -38 -35 -78 -65 -40 -30 -94 -78 -122 -108
l-50 -53 55 50 c30 28 71 64 89 80 32 27 33 28 18 5 -10 -14 -29 -43 -44 -65
-15 -22 -41 -56 -57 -75 -17 -19 -21 -26 -8 -16 22 19 22 19 22 -2 0 -11 -4
-24 -10 -27 -12 -8 -72 23 -65 34 2 5 -3 8 -13 7 -9 0 -16 4 -15 11 2 7 -3 10
-10 8 -6 -3 -37 20 -67 50 l-55 56 25 47 c31 60 128 158 202 205 122 77 303
137 463 153 33 4 62 8 64 10 6 5 253 -4 259 -10z m109 8 c-3 -3 -12 -4 -19 -1
-8 3 -5 6 6 6 11 1 17 -2 13 -5z m1 -48 c17 -1 32 -5 33 -10 0 -4 -66 -53
-148 -108 -314 -214 -520 -389 -605 -515 -33 -51 -58 -63 -37 -19 10 20 9 20
-5 2 -15 -18 -16 -18 -48 13 -17 17 -28 31 -23 31 5 0 -1 7 -13 16 -13 9 -21
22 -18 30 3 8 0 11 -10 7 -18 -7 23 92 64 151 66 97 254 257 371 317 94 48
193 79 210 65 11 -8 13 -8 7 1 -5 9 0 13 16 12 13 -1 43 3 68 8 25 5 59 7 75
5 17 -2 45 -5 63 -6z m1312 -41 c14 -16 10 -18 -14 -9 -9 3 -16 10 -16 15 0
14 16 11 30 -6z m-1343 -127 c-80 -121 -194 -269 -205 -266 -4 1 -74 -65 -156
-148 -143 -143 -145 -151 -3 -14 37 35 67 60 67 54 0 -6 -42 -51 -93 -101
l-93 -91 -82 2 c-87 2 -99 6 -85 29 20 36 288 312 433 447 19 18 26 26 15 19
-58 -39 -392 -375 -446 -448 -20 -27 -49 -33 -49 -9 0 21 138 179 224 256 97
86 276 217 293 214 10 -2 13 1 7 10 -4 7 -3 10 1 5 5 -4 24 7 43 25 19 18 31
26 27 18 -5 -8 9 2 30 23 24 23 45 35 54 32 9 -3 12 -3 8 1 -7 8 52 49 66 46
4 -1 7 3 7 10 0 6 3 9 6 5 3 -3 -28 -57 -69 -119z m146 19 c-3 -6 -1 -7 5 -3
7 4 12 0 13 -11 0 -10 3 -27 6 -38 12 -43 9 -159 -4 -218 -26 -115 -77 -198
-190 -312 -41 -42 -115 -85 -155 -90 -17 -2 -44 -9 -59 -15 -15 -6 -40 -10
-55 -8 -27 3 -24 6 36 40 239 134 378 381 382 677 l1 76 13 -44 c7 -24 11 -48
7 -54z m-45 2 c-1 -47 -4 -64 -10 -50 -10 29 -16 27 -10 -4 2 -14 8 -25 12
-25 9 0 -13 -108 -33 -166 -18 -50 -60 -132 -81 -159 -9 -11 -1 14 18 55 37
81 91 249 83 257 -3 2 -8 -10 -12 -28 -5 -24 -9 -28 -17 -18 -7 10 -7 7 -3 -9
8 -27 -15 -100 -62 -200 -19 -40 -31 -76 -28 -81 3 -5 0 -13 -6 -17 -8 -5 -9
-3 -4 6 5 9 4 11 -3 6 -7 -4 -12 -14 -12 -21 0 -17 -99 -118 -132 -136 -17 -9
-15 -4 10 22 19 19 43 48 55 64 11 17 -6 1 -39 -34 -32 -36 -57 -70 -56 -75 2
-6 1 -8 -3 -4 -4 4 -37 -9 -75 -28 -60 -31 -70 -34 -94 -23 -19 9 -23 15 -14
21 9 5 6 8 -9 8 -36 0 -27 13 32 48 30 18 55 36 55 39 0 3 -10 -1 -22 -9 -74
-46 -99 -59 -108 -53 -5 3 17 27 49 53 33 26 58 49 58 52 -1 3 22 30 52 60 29
30 97 110 151 177 54 67 101 119 104 116 3 -4 6 0 6 8 1 20 78 139 91 139 6 0
7 5 4 10 -3 6 -2 10 3 10 5 0 14 10 21 23 6 12 9 14 7 5 -3 -10 -1 -20 5 -23
5 -4 9 -3 8 2 -3 16 1 53 5 53 3 0 4 -32 4 -71z m-343 -341 c-55 -61 -67 -61
-15 1 24 28 45 49 48 46 3 -2 -12 -24 -33 -47z"/>
<path d="M2231 4336 c-9 -11 -2 -15 31 -21 38 -7 40 -8 18 -15 -25 -7 -25 -7
7 -14 43 -10 51 -33 9 -29 l-31 3 33 -10 c17 -6 32 -14 32 -19 0 -16 -13 -20
-34 -10 -20 10 -20 9 2 -10 28 -24 30 -46 3 -31 -30 15 -38 12 -13 -6 12 -8
22 -22 22 -30 0 -12 -4 -12 -27 3 l-28 17 23 -25 c28 -32 28 -43 1 -29 -11 7
-23 9 -26 6 -3 -3 6 -10 21 -16 17 -6 24 -14 20 -22 -4 -7 -3 -8 4 -4 7 4 12
2 12 -3 0 -6 5 -11 12 -11 25 0 107 -44 101 -54 -3 -6 -3 -8 1 -4 10 9 67 -12
61 -22 -3 -5 10 -13 29 -20 40 -13 63 -35 46 -45 -19 -12 -10 -21 33 -32 56
-16 120 -59 142 -96 10 -17 12 -27 5 -22 -9 6 -10 3 -1 -14 7 -12 8 -21 2 -21
-5 0 -7 -10 -3 -22 3 -14 2 -19 -6 -14 -9 5 -9 0 -2 -19 13 -34 13 -38 -2 -29
-8 5 -9 2 -4 -11 6 -16 4 -16 -10 -4 -16 13 -16 11 0 -19 22 -42 12 -55 -15
-22 -20 25 -20 25 -9 1 16 -31 -1 -50 -27 -30 -16 13 -17 12 -5 -3 11 -14 9
-20 -12 -41 -14 -14 -22 -28 -18 -33 4 -4 -1 -4 -10 -1 -10 4 -18 2 -18 -3 0
-6 5 -10 10 -10 6 0 10 -5 10 -11 0 -6 -10 -8 -22 -5 l-23 6 22 -11 c12 -6 24
-18 27 -25 4 -11 1 -12 -14 -4 -10 5 -24 10 -31 10 -7 0 4 -9 26 -20 21 -11
41 -17 44 -14 3 2 4 21 3 40 -3 44 32 95 77 114 20 8 31 20 32 34 7 174 15
200 77 259 26 26 56 54 67 62 11 9 13 13 5 9 -8 -4 -23 -14 -32 -22 -16 -14
-18 -13 -19 9 -1 21 -2 21 -6 4 -3 -11 -10 -26 -17 -34 -9 -12 -12 -9 -17 15
l-7 29 -1 -28 c0 -16 -7 -38 -13 -50 -12 -20 -13 -18 -19 28 l-6 50 1 -57 c2
-52 1 -56 -16 -47 -12 6 -19 22 -19 47 -2 30 -3 32 -6 9 l-4 -27 -30 17 c-19
11 -29 26 -30 43 -1 17 -3 19 -6 8 -7 -28 -23 -21 -24 10 -1 24 -2 25 -7 5 -5
-16 -11 -20 -21 -14 -8 5 -10 14 -6 22 5 8 5 11 0 7 -4 -4 -16 3 -26 16 -10
12 -72 51 -139 85 -97 50 -120 66 -115 79 11 28 26 121 23 139 -4 21 53 53 94
53 30 0 49 19 21 21 -10 1 -25 2 -33 3 -8 1 -23 -2 -32 -6 -10 -5 -18 -3 -21
5 -4 7 -6 6 -6 -4 -1 -22 -28 -31 -52 -19 -10 6 -19 13 -19 16 0 3 5 2 10 -1
6 -3 10 -1 10 5 0 7 -7 10 -15 6 -8 -3 -26 -1 -39 4 -17 6 -28 5 -35 -4z"/>
<path d="M2336 4323 c-6 -14 -5 -15 5 -6 7 7 10 15 7 18 -3 3 -9 -2 -12 -12z"/>
<path d="M2614 4285 c5 -13 2 -16 -11 -11 -16 6 -16 6 0 -12 24 -26 21 -30
-13 -28 -17 1 -32 -4 -34 -11 -6 -14 13 -24 84 -43 23 -6 71 -27 107 -46 41
-21 79 -34 103 -34 52 0 119 -25 153 -58 43 -40 97 -161 97 -217 0 -25 14 -84
30 -132 34 -99 35 -104 15 -77 -12 15 -12 11 2 -27 21 -58 14 -76 -26 -74 -43
3 -34 -16 16 -32 44 -15 75 -61 92 -140 5 -23 17 -50 26 -60 28 -28 55 -95 55
-139 0 -87 -48 -184 -92 -184 -29 0 -21 -17 15 -31 17 -7 36 -15 41 -17 5 -3
6 3 3 13 -4 10 1 29 14 47 68 95 62 255 -12 334 -11 12 -19 25 -18 30 5 27 -5
56 -35 107 -28 46 -33 63 -29 96 6 41 -13 108 -53 195 -13 27 -20 54 -17 59
14 23 1 79 -41 169 -61 131 -107 165 -230 173 -24 1 -69 16 -102 33 -32 17
-71 36 -86 41 -21 8 -27 17 -30 47 -2 21 -9 39 -17 42 -10 3 -12 0 -7 -13z"/>
<path d="M1831 4278 c-1 -23 -21 -34 -32 -17 -6 10 -9 8 -9 -8 0 -23 -20 -33
-20 -10 0 8 -4 7 -10 -3 -9 -13 -12 -12 -25 4 -14 18 -15 18 -15 2 0 -9 -4
-14 -10 -11 -5 3 -10 2 -10 -4 0 -33 65 -30 125 4 42 25 64 54 31 42 -8 -3
-17 -1 -20 6 -2 7 -5 5 -5 -5z"/>
<path d="M2162 4225 c0 -16 2 -22 5 -12 2 9 2 23 0 30 -3 6 -5 -1 -5 -18z"/>
<path d="M1860 4150 c13 -9 13 -10 0 -11 -62 -5 -107 -20 -126 -40 -21 -23
-18 -23 36 -4 94 33 238 28 262 -9 4 -6 12 -11 18 -11 5 0 10 -3 10 -7 0 -5 0
-18 0 -30 0 -21 0 -21 -16 -2 -15 18 -15 18 -5 -3 6 -12 11 -34 10 -50 0 -25
-1 -26 -9 -8 -4 12 -16 27 -26 35 -18 14 -18 14 -1 -6 18 -22 23 -44 8 -44 -5
0 -16 10 -25 23 -16 22 -16 22 -4 -6 14 -34 3 -47 -18 -21 -14 18 -15 18 -4
-4 9 -18 8 -23 -5 -28 -8 -3 -15 -12 -15 -20 0 -8 -6 -11 -17 -7 -12 5 -14 3
-7 -8 4 -8 7 -23 5 -34 -2 -15 3 -12 22 12 30 41 70 73 91 73 10 0 19 15 26
43 19 79 25 92 50 104 14 7 45 13 70 13 33 0 41 3 30 10 -23 15 -93 12 -118
-6 -21 -15 -25 -15 -43 2 -10 9 -19 13 -19 9 0 -5 -10 1 -22 12 -13 11 -30 23
-38 27 -8 4 -6 0 5 -9 20 -17 20 -17 -5 -10 -14 4 -29 11 -34 16 -13 12 -29
11 -21 -1 3 -6 -5 -10 -19 -10 -14 0 -28 5 -31 10 -3 6 -12 10 -18 10 -7 0 -6
-4 3 -10z"/>
<path d="M1405 4120 c-3 -5 -2 -10 4 -10 5 0 13 5 16 10 3 6 2 10 -4 10 -5 0
-13 -4 -16 -10z"/>
<path d="M3485 4023 c8 -21 9 -27 6 -68 l-2 -30 -19 37 c-11 20 -24 39 -30 43
-5 3 1 -15 14 -42 28 -54 25 -75 -6 -41 l-20 23 16 -25 c21 -33 22 -63 1 -36
-19 25 -19 9 0 -24 19 -34 19 -45 -2 -29 -15 13 -15 12 -4 -10 17 -31 21 -71
7 -71 -7 0 -8 -3 -1 -8 6 -4 20 -20 32 -37 24 -33 83 -73 83 -55 0 6 -13 22
-29 36 -16 13 -33 37 -39 52 -14 41 -5 140 16 181 20 37 21 37 90 28 17 -3 32
-2 32 3 0 10 -78 32 -90 25 -5 -3 -17 10 -27 29 -17 36 -42 52 -28 19z"/>
<path d="M3460 4024 c0 -6 7 -19 15 -30 8 -10 14 -14 14 -9 0 6 -6 19 -14 29
-8 11 -15 15 -15 10z"/>
<path d="M3210 3994 c0 -17 21 -32 55 -39 29 -6 29 -5 -5 10 -19 9 -38 21 -42
28 -5 8 -8 8 -8 1z"/>
<path d="M1765 3949 c3 -24 2 -35 -1 -24 -9 29 -24 42 -17 14 6 -23 6 -23 -14
-6 -19 16 -20 16 -18 -5 1 -14 9 -24 21 -26 10 -2 23 -8 29 -13 11 -11 15 -80
8 -127 l-5 -33 -24 22 c-29 27 -32 17 -4 -11 32 -32 23 -68 -10 -37 -8 7 -7 3
3 -12 19 -28 12 -52 -11 -43 -15 5 -15 4 1 -12 19 -20 20 -25 8 -45 -5 -8 -14
-10 -22 -6 -8 5 -6 -1 4 -12 30 -34 19 -69 -13 -40 -8 6 1 -5 18 -26 18 -21
29 -43 26 -49 -4 -7 -10 -5 -16 6 -5 9 -14 16 -20 16 -6 0 -4 -8 6 -19 9 -10
14 -25 10 -35 -8 -22 -21 -20 -29 4 -3 11 -11 20 -16 20 -5 0 -2 -11 7 -24 11
-18 13 -30 5 -43 -9 -17 -10 -17 -16 0 -4 9 -12 17 -18 17 -7 0 -7 -4 1 -12 7
-7 12 -18 12 -26 0 -11 -3 -12 -14 -3 -12 10 -13 8 -9 -8 7 -27 -5 -27 -34 1
-22 21 -23 21 -17 3 8 -19 7 -20 -19 -2 -17 11 -26 13 -25 6 2 -7 -15 -16 -39
-21 -23 -5 -47 -16 -54 -24 -10 -13 -8 -13 15 -4 45 17 118 12 154 -10 35 -22
45 -37 11 -20 -11 6 -25 9 -32 6 -7 -2 -6 -5 4 -5 8 -1 25 -11 37 -24 24 -26
29 -42 10 -31 -7 4 -2 -5 11 -19 17 -19 20 -27 10 -27 -10 -1 -9 -4 4 -14 10
-8 19 -23 20 -35 1 -12 4 -21 7 -21 3 0 11 -10 19 -21 11 -18 11 -23 -1 -30
-10 -7 -10 -9 3 -9 23 0 44 -26 27 -33 -9 -4 -9 -6 2 -6 8 -1 26 -11 40 -22
14 -11 20 -18 13 -15 -6 4 -14 2 -18 -4 -3 -6 4 -10 18 -10 14 0 30 -7 37 -15
11 -13 10 -14 -3 -10 -8 4 -18 1 -22 -5 -3 -6 -3 -10 2 -9 19 3 33 -2 33 -12
0 -6 -10 -8 -22 -5 l-23 6 23 -12 c26 -13 24 -35 -3 -30 -17 3 -17 2 -4 -14
13 -16 12 -17 -8 -12 -14 4 -22 2 -20 -6 1 -6 -6 -10 -15 -10 -12 1 -18 -5
-18 -18 0 -15 5 -18 23 -13 28 9 67 33 67 43 0 4 4 13 9 20 6 11 14 8 35 -11
27 -25 65 -37 116 -37 16 0 61 -16 102 -35 40 -19 79 -33 85 -30 7 2 13 0 13
-5 0 -6 -7 -10 -15 -10 -8 0 -15 -4 -15 -9 0 -5 9 -7 19 -4 15 4 21 -2 26 -28
5 -22 4 -34 -4 -37 -8 -3 -7 -8 3 -16 9 -6 16 -30 17 -58 2 -27 7 -48 12 -48
5 0 7 27 5 60 -2 49 0 59 11 55 12 -5 12 -3 -1 12 -29 34 -33 47 -12 39 15 -6
14 -2 -6 20 -14 15 -19 24 -11 19 7 -4 30 -9 50 -11 l36 -4 -30 11 c-16 6 -37
13 -45 15 -23 8 7 23 34 17 15 -3 17 -2 8 5 -18 13 9 34 34 26 18 -5 18 -5 1
6 -16 10 -16 13 -2 33 16 22 21 67 7 67 -4 0 -13 -12 -20 -27 -7 -16 -21 -39
-32 -53 l-19 -25 5 25 c4 20 2 19 -9 -6 -19 -41 -42 -56 -33 -23 l7 24 -17
-22 c-9 -13 -25 -23 -36 -23 -20 0 -20 1 -3 26 9 14 15 28 12 30 -2 3 -12 -7
-21 -21 -9 -14 -21 -23 -27 -19 -6 4 -6 11 2 20 6 8 9 17 5 21 -3 3 -6 2 -6
-4 0 -17 -30 -24 -51 -12 -19 10 -19 11 5 30 15 11 26 27 26 35 0 11 -12 8
-52 -12 l-53 -27 20 24 20 24 -20 -15 c-11 -8 -23 -19 -26 -24 -4 -4 -25 -5
-49 -1 l-42 7 21 19 c28 26 27 34 -1 15 -28 -20 -34 -20 -42 0 -4 10 1 22 11
30 17 12 16 13 -4 7 -14 -3 -23 -1 -23 6 0 7 3 10 8 8 4 -3 16 -1 27 4 16 6
12 8 -17 8 -21 1 -38 6 -38 11 0 6 6 10 14 10 8 0 17 4 20 8 3 5 -7 7 -22 5
-57 -9 -141 105 -191 259 l-22 67 47 70 c43 64 50 69 75 64 35 -7 73 2 93 23
26 26 18 37 -10 15 -27 -21 -69 -27 -90 -13 -32 21 -34 112 -3 218 20 71 29
188 15 201 -3 3 6 22 19 42 27 39 36 81 11 48 -11 -14 -15 -15 -19 -5 -3 7 -6
1 -6 -14 -1 -30 -21 -40 -21 -10 0 9 -4 24 -9 31 -7 10 -8 0 -6 -30z"/>
<path d="M3669 3923 c16 -31 14 -37 -6 -22 -17 13 -17 13 -3 -5 11 -14 12 -20
3 -23 -7 -2 -9 -11 -6 -19 3 -8 0 -14 -6 -14 -8 0 -9 -6 -2 -19 6 -10 8 -21 5
-24 -3 -3 -1 -14 5 -24 9 -15 10 -13 11 15 0 36 13 66 41 97 18 20 18 21 -3
34 -19 12 -20 11 -14 -6 4 -13 0 -11 -15 7 -17 22 -19 22 -10 3z"/>
<path d="M1356 3898 c-4 -16 -5 -35 -2 -43 3 -9 -1 -18 -9 -21 -23 -9 -18 -21
8 -21 37 0 84 -35 81 -59 -2 -12 3 -27 11 -34 8 -7 15 -20 15 -29 -1 -13 -3
-13 -17 4 l-16 20 8 -20 c4 -11 9 -26 12 -32 3 -7 0 -13 -6 -13 -7 0 -16 10
-21 23 -7 18 -9 18 -9 4 -1 -11 -6 -15 -12 -11 -8 5 -8 1 0 -14 24 -44 10 -56
-16 -14 -14 24 -28 41 -30 38 -3 -3 4 -20 16 -39 11 -19 21 -37 21 -41 0 -15
-17 -4 -33 22 -15 23 -17 24 -12 5 4 -16 2 -23 -8 -23 -8 0 -19 10 -26 23
l-11 22 6 -22 c6 -27 -3 -30 -23 -5 -13 15 -14 15 -10 0 9 -26 -6 -31 -20 -6
-13 23 -13 22 -7 -4 8 -34 -9 -37 -30 -6 -17 24 -22 13 -7 -12 6 -8 7 -18 4
-23 -3 -5 -9 -3 -14 4 -6 10 -9 8 -9 -7 0 -12 -6 -27 -14 -33 -8 -7 -33 -44
-56 -83 -23 -38 -51 -79 -61 -89 -12 -12 -14 -19 -6 -19 6 0 1 -10 -13 -21
-14 -11 -19 -18 -12 -14 6 3 12 1 12 -4 0 -6 -5 -11 -10 -11 -6 0 -9 -4 -8 -9
2 -5 -6 -16 -17 -24 -11 -9 -17 -18 -14 -22 13 -12 95 81 133 149 53 97 83
134 129 158 40 20 94 21 155 3 18 -6 22 -3 22 13 0 11 7 26 17 33 23 19 53 88
53 123 0 16 7 37 16 47 9 10 14 30 12 46 l-3 28 -18 -33 c-18 -32 -19 -33 -40
-18 -12 9 -39 25 -59 36 -32 17 -37 25 -40 62 -3 40 -4 41 -12 16z m107 -159
c4 -16 3 -18 -9 -8 -7 6 -11 15 -8 20 8 13 11 11 17 -12z m-33 -114 c0 -5 -5
-3 -10 5 -5 8 -10 20 -10 25 0 6 5 3 10 -5 5 -8 10 -19 10 -25z"/>
<path d="M2702 3880 c0 -14 2 -19 5 -12 2 6 2 18 0 25 -3 6 -5 1 -5 -13z"/>
<path d="M1740 3886 c0 -2 7 -7 16 -10 8 -3 12 -2 9 4 -6 10 -25 14 -25 6z"/>
<path d="M2144 3846 c-32 -32 -44 -54 -54 -99 -12 -53 -15 -57 -42 -57 -15 0
-28 -4 -28 -10 0 -5 15 -10 34 -10 33 0 35 2 56 68 12 37 28 74 37 84 22 25
61 31 93 14 30 -14 37 -11 54 24 4 8 1 7 -7 -3 -17 -21 -30 -8 -21 20 5 17 5
17 -6 1 -6 -10 -15 -18 -20 -18 -6 0 -10 8 -11 18 0 10 -3 12 -6 5 -5 -15 -30
-17 -35 -5 -1 5 -22 -10 -44 -32z"/>
<path d="M1747 3839 c7 -7 15 -10 18 -7 3 3 -2 9 -12 12 -14 6 -15 5 -6 -5z"/>
<path d="M1190 3819 c0 -5 11 -9 25 -9 14 0 25 2 25 4 0 2 -11 6 -25 8 -14 3
-25 1 -25 -3z"/>
<path d="M1740 3803 c13 -18 26 -30 29 -28 3 3 -8 18 -23 33 l-29 27 23 -32z"/>
<path d="M3740 3694 c0 -5 7 -18 15 -28 8 -11 15 -16 15 -10 0 5 -7 18 -15 28
-8 11 -15 16 -15 10z"/>
<path d="M877 3613 c-4 -3 -7 -11 -7 -17 0 -6 5 -5 12 2 6 6 9 14 7 17 -3 3
-9 2 -12 -2z"/>
<path d="M3110 3620 c0 -3 9 -27 20 -55 10 -27 19 -41 19 -30 0 17 -37 99 -39
85z"/>
<path d="M980 3584 c0 -9 -8 -23 -17 -31 -10 -8 -12 -12 -5 -8 8 4 12 -1 12
-14 0 -12 -5 -21 -11 -21 -5 0 -7 5 -3 12 4 7 3 8 -5 4 -6 -4 -9 -11 -6 -16 3
-4 -1 -11 -7 -14 -7 -3 -2 -3 12 0 l25 5 -25 -15 c-22 -13 -26 -13 -32 2 -5
12 -7 8 -7 -13 -1 -23 -4 -27 -11 -15 -8 13 -10 13 -10 -1 0 -9 -9 -36 -20
-60 -20 -45 -28 -101 -11 -84 5 6 14 27 21 48 15 47 51 91 87 106 26 11 28 15
28 71 0 33 -3 60 -7 60 -5 0 -8 -7 -8 -16z"/>
<path d="M3107 3539 c4 -13 8 -18 11 -10 2 7 -1 18 -6 23 -8 8 -9 4 -5 -13z"/>
<path d="M3986 3528 c7 -32 -9 -38 -26 -10 -10 15 -10 15 -8 -3 2 -11 -3 -25
-12 -32 -26 -20 -2 -26 34 -9 50 23 131 20 191 -8 45 -20 80 -49 137 -113 17
-19 41 -69 43 -88 0 -6 10 -24 23 -39 26 -34 29 -54 5 -35 -10 8 -4 -3 12 -23
17 -20 33 -37 37 -37 12 -2 -23 102 -55 164 -60 112 -179 207 -274 217 -18 2
-39 13 -48 23 -10 14 -13 15 -9 4 3 -10 -2 -19 -12 -23 -9 -4 -18 -5 -19 -4
-1 2 -7 12 -14 23 -10 18 -11 17 -5 -7z"/>
<path d="M4006 3537 c3 -10 9 -15 12 -12 3 3 0 11 -7 18 -10 9 -11 8 -5 -6z"/>
<path d="M724 3499 c-4 -8 -3 -9 4 -5 7 4 12 3 12 -2 0 -16 -13 -22 -27 -11
-10 9 -13 6 -13 -12 0 -13 -3 -34 -6 -47 -6 -21 -3 -20 47 13 29 19 57 41 62
50 10 18 -4 20 -22 3 -11 -11 -13 -10 -7 2 4 8 -2 4 -14 -10 -20 -23 -21 -24
-15 -3 6 23 -9 40 -21 22z"/>
<path d="M2849 3405 c-6 -25 -15 -45 -20 -45 -5 0 -9 -7 -9 -15 0 -9 -7 -18
-15 -21 -8 -4 -15 -12 -15 -20 0 -8 -5 -14 -11 -14 -5 0 -7 5 -3 12 4 7 3 8
-5 4 -6 -4 -8 -12 -5 -18 9 -14 -17 -60 -32 -54 -7 3 -10 -2 -7 -14 4 -14 0
-17 -21 -13 -14 3 -27 13 -29 22 -4 14 -5 14 -6 -1 0 -10 -8 -18 -16 -18 -8 0
-15 -4 -15 -10 0 -5 18 -11 40 -11 22 -1 44 -2 49 -3 6 -1 34 35 63 79 43 65
62 85 102 104 51 25 48 41 -3 23 -29 -10 -29 -10 -24 24 8 49 -5 42 -18 -11z"/>
<path d="M2270 3378 c0 -9 5 -20 10 -23 13 -8 13 5 0 25 -8 13 -10 13 -10 -2z"/>
<path d="M2181 3334 c0 -11 3 -14 6 -6 3 7 2 16 -1 19 -3 4 -6 -2 -5 -13z"/>
<path d="M2741 3274 c0 -11 3 -14 6 -6 3 7 2 16 -1 19 -3 4 -6 -2 -5 -13z"/>
<path d="M560 3259 c-8 -5 -10 -9 -5 -9 6 0 1 -7 -9 -15 -14 -11 -16 -15 -5
-15 8 -1 3 -7 -11 -15 -22 -13 -23 -14 -5 -15 18 0 18 -2 -5 -20 -24 -19 -24
-19 -2 -13 17 4 21 2 16 -10 -3 -9 -9 -16 -12 -15 -18 2 -32 -3 -32 -12 0 -5
9 -10 20 -10 12 0 20 -7 20 -17 0 -34 18 3 23 48 3 26 12 63 21 82 16 38 10
52 -14 36z"/>
<path d="M3730 3245 c7 -9 15 -13 17 -11 7 7 -7 26 -19 26 -6 0 -6 -6 2 -15z"/>
<path d="M4491 3233 c11 -34 19 -42 19 -20 0 7 -7 22 -15 33 -13 17 -14 16 -4
-13z"/>
<path d="M4101 3234 c0 -11 3 -14 6 -6 3 7 2 16 -1 19 -3 4 -6 -2 -5 -13z"/>
<path d="M974 3156 c-3 -9 -4 -28 -2 -41 4 -21 1 -25 -18 -25 -26 0 -83 -44
-72 -56 5 -4 16 0 25 8 22 18 79 39 87 30 6 -6 -4 90 -10 97 -2 2 -6 -4 -10
-13z"/>
<path d="M4546 3153 c-6 -14 -5 -15 5 -6 7 7 10 15 7 18 -3 3 -9 -2 -12 -12z"/>
<path d="M4570 3125 c-7 -9 -8 -15 -2 -15 5 0 12 7 16 15 3 8 4 15 2 15 -2 0
-9 -7 -16 -15z"/>
<path d="M1439 3103 c13 -26 -5 -44 -21 -22 -6 10 -8 7 -6 -10 4 -31 -18 -39
-27 -11 -4 12 -9 19 -11 17 -3 -2 0 -16 7 -30 14 -30 4 -77 -16 -77 -7 0 -16
9 -20 19 -3 11 -13 22 -21 25 -11 4 -9 -2 6 -21 23 -29 11 -45 -16 -23 -12 11
-13 10 -8 -4 6 -16 -10 -23 -19 -8 -2 4 -2 2 -1 -5 2 -6 -16 -21 -39 -33 -23
-12 -54 -33 -69 -47 l-27 -26 -63 16 c-35 9 -76 19 -93 22 -16 2 -50 8 -75 13
-25 5 -59 7 -75 5 -39 -5 -70 -36 -61 -60 7 -16 9 -16 26 7 24 32 79 31 220
-4 30 -8 72 -17 92 -20 34 -6 36 -9 35 -41 -2 -30 -4 -32 -18 -19 -8 8 -19 14
-24 14 -5 0 1 -9 12 -20 21 -19 39 -58 30 -66 -2 -2 -16 5 -30 17 -38 29 -34
18 8 -24 39 -39 50 -74 13 -40 -13 11 -30 23 -38 27 -8 4 3 -8 24 -27 21 -19
36 -39 32 -45 -4 -7 -18 1 -38 18 -18 16 -34 28 -36 25 -2 -2 8 -15 24 -28
l29 -25 -39 -16 c-22 -9 -41 -14 -43 -12 -2 2 -15 -6 -27 -18 -32 -29 -74 -57
-82 -54 -3 2 -13 -10 -21 -26 -12 -23 -17 -26 -24 -15 -8 12 -10 11 -8 -1 1
-8 1 -26 0 -39 -1 -24 -1 -24 -15 -5 -13 17 -14 16 -7 -15 3 -19 12 -36 18
-38 6 -2 28 21 48 52 43 64 93 101 187 139 125 49 245 53 388 12 52 -16 119
-29 147 -30 29 0 53 -2 53 -3 0 -2 -15 -10 -32 -18 -31 -14 -11 -15 23 -1 21
9 36 -24 17 -36 -10 -6 -8 -8 5 -8 9 0 17 -5 17 -11 0 -6 11 -25 25 -43 l25
-33 -26 -11 c-40 -19 -18 -34 43 -29 61 5 128 -9 184 -39 64 -34 178 -109 179
-117 0 -4 -10 -2 -22 4 l-23 12 23 -25 c12 -13 22 -28 22 -31 0 -4 -10 -3 -22
4 -20 9 -19 7 5 -15 15 -15 27 -31 27 -36 0 -17 -31 -39 -47 -33 -11 4 -14 3
-9 -5 4 -8 -3 -16 -18 -22 -30 -11 -35 -31 -7 -25 28 5 78 33 88 47 4 7 8 44
8 82 l0 69 49 33 c26 19 70 42 97 51 61 22 63 34 5 31 -24 -2 -42 -6 -40 -9 6
-10 -24 -19 -41 -13 -11 4 -13 2 -9 -9 8 -21 -14 -31 -33 -15 -14 11 -15 10
-9 -9 9 -27 -13 -42 -29 -20 -20 28 -27 19 -8 -10 21 -32 13 -29 -59 22 -32
22 -62 51 -67 65 -6 16 -10 19 -10 8 -1 -11 -7 -15 -21 -11 -11 3 -20 9 -20
14 0 5 -9 9 -20 9 -11 0 -20 5 -20 10 0 6 -6 10 -12 9 -28 -3 -38 2 -39 19 0
10 -3 12 -6 5 -6 -16 -43 -17 -43 -2 0 8 -4 8 -14 0 -11 -10 -19 -8 -36 6 -22
18 -70 107 -70 130 0 7 17 20 37 28 49 21 103 63 103 81 0 19 -4 18 -51 -13
-22 -14 -48 -27 -57 -28 -10 0 -24 -5 -32 -10 -8 -5 -31 -11 -51 -12 -34 -4
-37 -2 -33 19 l5 23 -11 -23 c-12 -27 -36 -24 -33 4 1 18 1 18 -11 1 -19 -24
-49 -12 -40 17 6 20 6 20 -9 2 -18 -24 -50 -15 -40 11 5 17 5 17 -8 0 -12 -15
-19 -16 -47 -6 -24 8 -32 16 -28 28 5 13 4 13 -8 -1 -7 -10 -18 -18 -25 -18
-13 0 -14 2 -1 34 5 14 7 26 4 26 -3 0 -10 -13 -15 -30 -12 -33 -29 -40 -29
-13 0 15 -2 14 -16 -3 -15 -18 -15 -17 -10 16 l5 35 -15 -32 c-16 -38 -45 -46
-38 -10 l5 22 -10 -22 c-6 -13 -15 -23 -21 -23 -13 0 -13 26 0 51 6 11 7 19 1
19 -5 0 -13 -17 -18 -37 -9 -40 -33 -57 -33 -24 0 11 5 32 11 48 5 15 7 24 2
20 -4 -5 -13 -22 -19 -39 l-10 -31 -11 46 c-5 26 -6 44 -2 41 5 -3 9 0 9 5 0
6 -4 11 -10 11 -5 0 -10 24 -10 53 0 48 3 54 35 80 50 40 124 75 191 91 42 10
54 16 42 21 -10 4 -24 5 -32 2 -28 -11 10 57 45 81 53 36 58 45 24 39 -20 -3
-33 0 -43 11 -11 15 -12 14 -3 -5z"/>
<path d="M2084 3099 c-13 -5 -7 -8 24 -8 23 -1 42 1 42 3 0 8 -48 12 -66 5z"/>
<path d="M658 3058 c3 -14 2 -19 -6 -14 -7 4 -12 3 -12 -3 0 -13 67 -81 81
-81 6 0 -4 12 -21 26 -32 27 -34 48 -3 23 10 -7 8 -2 -4 12 -13 14 -23 30 -23
37 0 6 -4 13 -9 16 -5 4 -7 -4 -3 -16z"/>
<path d="M429 3043 c-13 -15 -12 -15 9 -4 23 12 28 21 13 21 -5 0 -15 -7 -22
-17z"/>
<path d="M1342 3025 c18 -19 34 -32 37 -29 6 5 -50 64 -61 64 -4 0 7 -16 24
-35z"/>
<path d="M4336 2915 c-3 -9 -6 -22 -5 -28 0 -7 5 -1 10 12 5 13 8 26 5 28 -2
2 -6 -3 -10 -12z"/>
<path d="M1990 2875 c-13 -14 -19 -25 -13 -25 6 0 18 11 27 25 9 14 15 25 13
25 -2 0 -14 -11 -27 -25z"/>
<path d="M338 2873 c7 -3 16 -2 19 1 4 3 -2 6 -13 5 -11 0 -14 -3 -6 -6z"/>
<path d="M1120 2806 c0 -2 7 -7 16 -10 8 -3 12 -2 9 4 -6 10 -25 14 -25 6z"/>
<path d="M2560 2741 c6 -12 6 -22 1 -26 -5 -3 -7 -21 -4 -40 4 -23 2 -35 -6
-35 -6 0 -11 4 -11 8 0 5 -7 17 -15 28 -13 16 -13 14 0 -19 13 -31 13 -41 3
-55 -18 -24 -73 -22 -93 3 -16 19 -16 19 -5 -3 15 -30 5 -40 -22 -23 -18 11
-20 11 -14 -4 4 -13 2 -16 -9 -12 -8 4 -17 1 -21 -5 -4 -7 -9 -6 -15 3 -6 11
-9 10 -15 -4 -11 -29 2 -31 74 -17 81 16 105 15 138 -6 32 -22 40 -12 19 24
-16 27 -16 30 4 70 29 57 26 132 -6 132 -10 0 -11 -4 -3 -19z"/>
<path d="M2158 2713 c7 -3 16 -2 19 1 4 3 -2 6 -13 5 -11 0 -14 -3 -6 -6z"/>
<path d="M2200 2680 c-13 -8 -13 -10 2 -10 9 0 20 5 23 10 8 13 -5 13 -25 0z"/>
<path d="M2498 2639 c9 -23 18 -37 20 -31 3 10 -24 72 -32 72 -3 0 3 -19 12
-41z"/>
<path d="M4251 2660 c14 -31 19 -36 19 -24 0 6 -7 19 -16 30 -14 18 -14 18 -3
-6z"/>
<path d="M4572 2641 c-7 -23 -30 -56 -53 -79 l-41 -38 47 -38 c25 -21 58 -56
72 -77 16 -25 30 -36 40 -32 13 5 13 7 -2 15 -15 9 -15 11 2 23 17 13 17 14
-3 9 -32 -8 -40 24 -9 36 36 14 31 21 -6 8 -22 -7 -34 -7 -41 0 -8 8 -3 13 15
17 14 4 32 14 39 23 13 16 11 15 -34 -7 -15 -8 -35 -10 -45 -6 -15 6 -9 12 30
30 26 12 50 25 53 28 11 11 -41 -6 -63 -20 -12 -8 -32 -13 -45 -11 -19 3 -16
7 23 25 26 11 50 26 54 33 4 7 -6 5 -26 -5 -33 -16 -33 -15 -13 2 12 10 30 24
40 31 17 11 17 11 -3 2 -20 -9 -22 -8 -16 7 4 10 14 25 23 33 9 8 10 11 4 7
-8 -5 -16 -2 -21 8 -8 13 -12 8 -21 -24z"/>
<path d="M1465 2639 c-4 -6 -5 -12 -2 -15 2 -3 7 2 10 11 7 17 1 20 -8 4z"/>
<path d="M2450 2634 c0 -5 7 -19 15 -30 8 -10 15 -14 15 -8 0 5 -7 19 -15 30
-8 10 -15 14 -15 8z"/>
<path d="M265 2610 c3 -5 11 -10 16 -10 6 0 7 5 4 10 -3 6 -11 10 -16 10 -6 0
-7 -4 -4 -10z"/>
<path d="M430 2612 c0 -12 19 -26 26 -19 2 2 -2 10 -11 17 -9 8 -15 8 -15 2z"/>
<path d="M1070 2606 c0 -2 7 -9 15 -16 13 -11 14 -10 9 4 -5 14 -24 23 -24 12z"/>
<path d="M675 2500 c27 -12 43 -12 25 0 -8 5 -22 9 -30 9 -10 0 -8 -3 5 -9z"/>
<path d="M4455 2452 c-1 -34 -10 -66 -28 -102 -15 -29 -26 -55 -23 -57 9 -9
45 22 51 44 3 13 9 22 13 19 5 -3 6 8 4 25 -3 17 0 29 7 29 6 0 11 -6 11 -14
0 -8 4 -18 10 -21 11 -7 2 23 -12 42 -5 6 -8 20 -6 30 1 10 -1 24 -5 30 -15
24 27 1 56 -31 17 -18 25 -23 19 -11 -14 29 -43 52 -72 60 -24 6 -25 4 -25
-43z"/>
<path d="M640 2480 c-8 -5 -10 -10 -5 -10 6 0 17 5 25 10 8 5 11 10 5 10 -5 0
-17 -5 -25 -10z"/>
<path d="M2620 2481 c0 -6 24 -22 53 -35 28 -13 61 -33 72 -46 l20 -23 -25 13
c-20 10 -18 5 13 -27 20 -21 37 -45 37 -53 -1 -12 -2 -12 -10 1 -5 9 -22 24
-37 34 l-28 18 26 -29 c52 -59 52 -61 17 -62 -18 0 -39 5 -48 11 -13 10 -13
10 -2 -4 10 -14 10 -18 -4 -23 -29 -11 -6 -20 49 -17 28 1 67 -3 84 -8 40 -12
50 0 21 25 -36 32 -60 99 -57 159 3 61 -6 82 -17 39 -11 -45 -14 -46 -47 -18
-17 14 -40 29 -51 34 -51 18 -66 21 -66 11z"/>
<path d="M3761 2444 c0 -11 3 -14 6 -6 3 7 2 16 -1 19 -3 4 -6 -2 -5 -13z"/>
<path d="M4490 2455 c0 -2 9 -19 20 -37 23 -39 27 -30 5 12 -14 27 -25 38 -25
25z"/>
<path d="M1408 2394 c-4 -4 13 -25 37 -46 50 -44 66 -68 70 -104 3 -29 -19
-32 -47 -7 -10 9 -18 11 -18 5 0 -6 6 -12 13 -15 9 -4 9 -7 0 -17 -10 -11 -15
-11 -28 0 -13 11 -15 10 -10 -1 7 -18 -117 -75 -137 -63 -7 4 -10 4 -6 -1 4
-4 3 -14 -4 -22 -24 -29 5 -23 109 22 146 64 168 63 297 -9 97 -53 144 -65 92
-22 -14 11 -30 32 -36 46 -9 22 -10 22 -6 3 3 -20 1 -21 -15 -12 -10 5 -20 20
-20 32 -1 17 -2 18 -6 5 -7 -27 -22 -22 -29 9 -6 23 -8 24 -14 9 -6 -17 -7
-17 -23 -2 -9 9 -19 17 -22 16 -21 -1 -25 3 -26 28 l-1 27 -7 -30 c-5 -25 -8
-27 -14 -12 -4 10 -7 28 -7 40 0 17 -2 19 -9 8 -8 -12 -12 -9 -23 15 -14 32
-66 84 -85 84 -6 0 -13 5 -15 11 -2 5 -7 7 -10 3z"/>
<path d="M3775 2380 c-10 -11 -13 -20 -7 -20 6 0 16 9 22 20 6 11 9 20 7 20
-2 0 -12 -9 -22 -20z"/>
<path d="M1170 2351 c16 -31 21 -61 9 -61 -5 0 -9 6 -9 14 0 8 -4 17 -9 20 -4
3 -6 -6 -3 -19 2 -15 0 -25 -7 -25 -6 0 -11 6 -11 14 0 8 -4 17 -9 20 -5 4 -7
-2 -4 -13 3 -10 0 -22 -6 -25 -6 -4 -11 -2 -11 5 0 7 -7 4 -15 -7 -8 -10 -15
-16 -15 -12 -1 19 -166 -85 -240 -151 -25 -23 -69 -52 -97 -66 -65 -30 -69
-48 -9 -30 63 19 79 29 151 94 66 60 165 117 252 145 28 10 56 22 61 29 12 15
-7 79 -26 85 -11 3 -12 0 -2 -17z"/>
<path d="M385 2351 c-3 -5 2 -12 11 -15 12 -4 14 -14 9 -38 -5 -30 -5 -31 9
-15 8 10 13 26 11 35 -2 9 -4 20 -4 23 -2 11 -30 19 -36 10z"/>
<path d="M460 2320 c0 -5 5 -10 11 -10 5 0 7 5 4 10 -3 6 -8 10 -11 10 -2 0
-4 -4 -4 -10z"/>
<path d="M2730 2305 c13 -14 26 -23 28 -20 7 7 -29 45 -41 45 -6 0 0 -11 13
-25z"/>
<path d="M4580 2308 c-1 -13 -7 -34 -15 -48 -19 -32 -19 -56 -1 -63 11 -4 13
-1 9 10 -4 10 -2 14 4 10 7 -5 9 1 5 15 -3 14 -1 19 6 14 8 -5 10 -2 6 8 -8
20 10 21 26 1 7 -8 18 -15 24 -15 6 0 -1 11 -16 24 -31 26 -36 38 -13 30 23
-9 18 2 -10 20 -24 16 -25 16 -25 -6z"/>
<path d="M3280 2271 c-14 -35 -38 -47 -47 -25 -4 12 -10 8 -20 -17 -10 -25
-16 -30 -23 -20 -6 11 -9 8 -12 -10 -1 -13 -7 -24 -13 -24 -5 0 -15 -4 -22 -8
-16 -10 -26 8 -19 36 l6 22 -12 -23 c-13 -25 -34 -24 -32 2 1 9 -2 16 -7 16
-5 0 -9 -7 -9 -15 0 -25 -30 -17 -31 8 l0 22 -10 -23 c-6 -15 -13 -21 -21 -15
-7 4 -17 8 -23 9 -5 1 -18 5 -27 9 -25 10 -23 -12 2 -25 11 -6 19 -14 16 -18
-2 -4 12 -7 32 -6 44 2 60 -5 41 -17 -10 -6 -10 -9 -2 -9 6 0 15 5 18 10 9 15
25 12 25 -5 0 -8 -4 -15 -10 -15 -5 0 -10 -5 -10 -12 0 -6 11 -1 24 11 23 22
25 22 34 4 17 -31 25 -90 13 -97 -6 -4 -11 -12 -11 -17 0 -6 5 -7 12 -3 8 5 9
2 3 -12 -4 -10 -10 -30 -13 -44 -2 -14 -9 -30 -13 -36 -5 -6 -6 -14 -2 -17 28
-28 55 46 57 152 l1 85 43 33 c34 26 53 33 87 33 32 0 57 8 89 29 49 30 52 50
5 25 -21 -11 -29 -11 -29 -2 0 6 -9 2 -20 -10 -22 -23 -40 -29 -40 -13 0 6 5
13 10 16 6 3 10 11 10 18 0 6 -7 1 -16 -11 -21 -31 -36 -28 -23 4 14 37 4 41
-11 5z"/>
<path d="M1480 2266 c0 -2 7 -7 16 -10 8 -3 12 -2 9 4 -6 10 -25 14 -25 6z"/>
<path d="M3241 2254 c0 -11 3 -14 6 -6 3 7 2 16 -1 19 -3 4 -6 -2 -5 -13z"/>
<path d="M1325 2170 c3 -5 8 -10 11 -10 2 0 4 5 4 10 0 6 -5 10 -11 10 -5 0
-7 -4 -4 -10z"/>
<path d="M3561 2108 c-62 -87 -55 -83 -129 -80 -37 1 -74 -2 -82 -8 -11 -7 -2
-10 35 -10 81 0 121 -16 137 -53 8 -17 22 -48 31 -67 16 -32 17 -32 14 -8 -4
25 -2 26 17 17 14 -7 11 -1 -9 16 -29 26 -29 27 -5 20 22 -5 22 -4 -5 11 -18
10 -25 19 -17 22 7 2 20 -2 30 -10 15 -12 16 -11 4 4 -7 9 -24 19 -37 22 -14
4 -25 10 -25 15 0 12 56 -4 78 -21 13 -11 14 -11 8 0 -5 8 -27 22 -50 33 l-41
19 40 -5 c37 -4 38 -3 12 6 -32 13 -27 29 11 30 17 1 21 3 10 6 -29 7 -21 26
9 20 24 -4 26 -4 10 8 -22 16 -23 39 -1 31 14 -5 15 -4 4 9 -7 8 -14 15 -16
15 -2 0 -17 -19 -33 -42z"/>
<path d="M3102 2094 c-12 -13 -19 -24 -14 -24 11 0 47 39 41 44 -2 2 -14 -7
-27 -20z"/>
<path d="M2156 2095 c4 -8 11 -15 16 -15 6 0 5 6 -2 15 -7 8 -14 15 -16 15 -2
0 -1 -7 2 -15z"/>
<path d="M2666 2071 c-17 -11 -33 -18 -38 -15 -4 3 -8 -1 -8 -9 0 -8 -9 -22
-20 -32 -19 -17 -20 -17 -21 1 0 13 -3 11 -9 -8 -15 -50 -23 -54 -37 -23 l-13
30 6 -32 c7 -38 -12 -46 -26 -10 -7 17 -9 18 -9 5 -1 -23 -31 -24 -31 -1 0 15
-2 14 -15 -3 -8 -10 -15 -14 -15 -7 0 7 -7 10 -15 6 -9 -3 -23 3 -31 13 -12
15 -15 16 -11 3 4 -13 1 -15 -14 -12 -10 3 -19 10 -19 15 0 5 -4 7 -8 4 -5 -3
-28 4 -51 16 -53 26 -77 12 -35 -21 33 -26 108 -49 199 -61 39 -5 78 -12 87
-15 11 -4 18 0 23 14 8 25 85 104 126 128 16 9 29 21 29 25 0 13 -13 9 -44
-11z"/>
<path d="M3125 2069 c-4 -6 -5 -12 -2 -15 2 -3 7 2 10 11 7 17 1 20 -8 4z"/>
<path d="M1716 1965 c-3 -8 -1 -15 4 -15 6 0 10 7 10 15 0 8 -2 15 -4 15 -2 0
-6 -7 -10 -15z"/>
<path d="M2809 1843 c-68 -85 -93 -97 -191 -98 -56 0 -78 -4 -78 -12 0 -12 29
-19 55 -13 5 1 15 -7 22 -16 12 -16 13 -16 13 -1 0 10 8 17 20 17 23 0 24 -4
10 -31 -6 -10 -7 -19 -3 -19 5 0 14 14 20 30 6 17 19 30 28 30 12 0 15 -5 10
-17 -4 -10 -9 -34 -11 -53 -4 -28 -1 -24 15 20 19 55 25 51 23 -20 0 -22 2
-26 5 -12 2 12 8 22 14 22 12 0 23 -46 14 -62 -3 -7 0 -5 8 4 16 20 27 14 27
-16 0 -17 2 -18 9 -7 8 12 12 12 25 2 9 -7 13 -18 9 -25 -4 -7 -1 -7 8 1 12
10 19 10 35 -1 10 -7 49 -14 87 -15 55 -2 67 1 67 13 0 11 -10 16 -27 17 -120
3 -197 45 -248 135 -18 31 -18 32 9 60 34 37 90 123 84 130 -3 2 -30 -26 -59
-63z"/>
<path d="M3126 1824 c-4 -15 -21 -48 -38 -73 -30 -44 -30 -45 -5 -22 26 24 65
106 55 117 -3 3 -9 -7 -12 -22z"/>
<path d="M497 1784 c-10 -13 -13 -24 -8 -24 10 0 36 39 29 45 -2 2 -11 -8 -21
-21z"/>
<path d="M3380 1702 c0 -6 -10 -21 -22 -33 l-23 -21 23 11 c24 13 39 38 28 48
-3 4 -6 1 -6 -5z"/>
<path d="M3543 1668 c-17 -18 -34 -43 -37 -55 -4 -11 -24 -38 -45 -59 -23 -22
-37 -43 -34 -51 5 -12 7 -12 14 -1 5 7 9 9 9 3 0 -5 7 1 16 13 8 12 20 20 25
16 5 -3 8 0 7 8 -2 7 2 12 9 11 7 -2 10 4 7 12 -4 8 -1 15 5 15 6 0 8 7 4 17
-4 10 -2 14 4 10 6 -4 14 0 17 9 4 10 2 13 -6 8 -7 -4 -8 -3 -4 4 4 7 14 12
22 12 8 0 12 5 9 10 -3 6 -2 10 2 10 5 0 9 9 10 20 1 11 1 20 -1 20 -1 0 -16
-15 -33 -32z"/>
<path d="M3090 1401 c0 -5 5 -13 10 -16 6 -3 10 -2 10 4 0 5 -4 13 -10 16 -5
3 -10 2 -10 -4z"/>
<path d="M1779 1842 c5 -10 18 -25 27 -33 11 -9 9 -2 -6 19 -26 35 -36 42 -21
14z"/>
<path d="M1840 1760 c12 -16 24 -30 26 -30 3 0 -4 14 -16 30 -12 17 -24 30
-26 30 -3 0 4 -13 16 -30z"/>
<path d="M1879 1705 c17 -33 31 -51 31 -40 0 6 -10 21 -21 35 -13 17 -17 18
-10 5z"/>
<path d="M1920 1630 c6 -11 13 -20 16 -20 2 0 0 9 -6 20 -6 11 -13 20 -16 20
-2 0 0 -9 6 -20z"/>
<path d="M1355 1801 c61 -21 123 -44 139 -50 16 -6 31 -10 33 -8 4 5 -137 59
-212 82 -94 28 -70 14 40 -24z"/>
<path d="M1128 1823 c7 -3 16 -2 19 1 4 3 -2 6 -13 5 -11 0 -14 -3 -6 -6z"/>
<path d="M1580 1715 c25 -13 50 -24 55 -24 6 0 -10 11 -35 24 -25 13 -49 24
-55 24 -5 0 10 -11 35 -24z"/>
<path d="M1652 1718 c9 -7 37 -25 63 -41 25 -15 43 -32 40 -37 -3 -6 1 -7 10
-4 10 4 15 2 13 -7 -2 -8 4 -14 12 -14 8 0 19 -6 23 -13 5 -7 12 -10 18 -7 5
4 9 2 9 -3 0 -6 8 -13 18 -16 9 -3 2 7 -15 24 -21 19 -39 27 -50 23 -11 -4
-14 -3 -9 5 4 7 -13 24 -46 45 -62 40 -113 66 -86 45z"/>
<path d="M740 1707 c25 -7 47 -12 49 -10 9 7 -7 12 -49 18 l-45 5 45 -13z"/>
<path d="M835 1685 c22 -8 49 -13 60 -13 11 0 -2 6 -30 14 -63 17 -84 16 -30
-1z"/>
<path d="M1675 1670 c17 -11 35 -20 40 -20 6 0 -5 9 -23 20 -42 26 -56 26 -17
0z"/>
<path d="M1976 1737 c3 -10 9 -15 12 -12 3 3 0 11 -7 18 -10 9 -11 8 -5 -6z"/>
<path d="M2042 1640 c0 -14 2 -19 5 -12 2 6 2 18 0 25 -3 6 -5 1 -5 -13z"/>
<path d="M2142 1645 c0 -16 2 -22 5 -12 2 9 2 23 0 30 -3 6 -5 -1 -5 -18z"/>
<path d="M2256 1563 c-6 -14 -5 -15 5 -6 7 7 10 15 7 18 -3 3 -9 -2 -12 -12z"/>
<path d="M2229 1523 c-13 -16 -12 -17 4 -4 9 7 17 15 17 17 0 8 -8 3 -21 -13z"/>
<path d="M1308 1613 c7 -3 16 -2 19 1 4 3 -2 6 -13 5 -11 0 -14 -3 -6 -6z"/>
<path d="M1238 1603 c7 -3 16 -2 19 1 4 3 -2 6 -13 5 -11 0 -14 -3 -6 -6z"/>
<path d="M1198 1593 c7 -3 16 -2 19 1 4 3 -2 6 -13 5 -11 0 -14 -3 -6 -6z"/>
<path d="M1398 1583 c7 -3 16 -2 19 1 4 3 -2 6 -13 5 -11 0 -14 -3 -6 -6z"/>
<path d="M1438 1583 c6 -2 18 -2 25 0 6 3 1 5 -13 5 -14 0 -19 -2 -12 -5z"/>
<path d="M1268 1573 c7 -3 16 -2 19 1 4 3 -2 6 -13 5 -11 0 -14 -3 -6 -6z"/>
<path d="M1620 1570 c8 -5 20 -10 25 -10 6 0 3 5 -5 10 -8 5 -19 10 -25 10 -5
0 -3 -5 5 -10z"/>
<path d="M1060 1550 c-8 -5 -10 -10 -5 -10 6 0 17 5 25 10 8 5 11 10 5 10 -5
0 -17 -5 -25 -10z"/>
<path d="M960 1540 c-9 -6 -10 -10 -3 -10 6 0 15 5 18 10 8 12 4 12 -15 0z"/>
<path d="M1318 1543 c7 -3 16 -2 19 1 4 3 -2 6 -13 5 -11 0 -14 -3 -6 -6z"/>
<path d="M1388 1543 c7 -3 16 -2 19 1 4 3 -2 6 -13 5 -11 0 -14 -3 -6 -6z"/>
<path d="M1268 1533 c6 -2 18 -2 25 0 6 3 1 5 -13 5 -14 0 -19 -2 -12 -5z"/>
<path d="M1178 1513 c7 -3 16 -2 19 1 4 3 -2 6 -13 5 -11 0 -14 -3 -6 -6z"/>
<path d="M1138 1503 c7 -3 16 -2 19 1 4 3 -2 6 -13 5 -11 0 -14 -3 -6 -6z"/>
<path d="M1278 1503 c7 -3 16 -2 19 1 4 3 -2 6 -13 5 -11 0 -14 -3 -6 -6z"/>
<path d="M995 1480 c-3 -6 1 -7 9 -4 18 7 21 14 7 14 -6 0 -13 -4 -16 -10z"/>
<path d="M1125 1470 c-3 -5 -1 -10 4 -10 6 0 11 5 11 10 0 6 -2 10 -4 10 -3 0
-8 -4 -11 -10z"/>
<path d="M926 1450 c-60 -30 -101 -66 -149 -128 -24 -31 -47 -64 -52 -72 -12
-22 6 -2 45 50 52 69 103 114 162 143 29 14 49 26 43 26 -5 0 -27 -8 -49 -19z"/>
<path d="M1058 1439 c-21 -11 -38 -22 -38 -24 0 -5 79 32 89 41 12 11 -18 1
-51 -17z"/>
<path d="M790 1387 c-19 -19 -51 -51 -70 -73 -19 -21 -2 -8 38 31 39 38 72 71
72 72 0 6 -7 1 -40 -30z"/>
<path d="M925 1347 c-44 -34 -92 -74 -105 -88 -75 -79 -75 -85 0 -14 47 45
109 98 138 119 45 32 60 46 50 46 -2 0 -39 -28 -83 -63z"/>
<path d="M829 1313 c-57 -60 -128 -143 -88 -103 45 44 162 170 158 170 -3 0
-34 -30 -70 -67z"/>
<path d="M710 1575 c-14 -8 -20 -14 -14 -15 5 0 19 7 30 15 24 18 16 19 -16 0z"/>
<path d="M865 1580 c-3 -6 1 -7 9 -4 18 7 21 14 7 14 -6 0 -13 -4 -16 -10z"/>
<path d="M760 1570 c-8 -5 -10 -10 -5 -10 6 0 17 5 25 10 8 5 11 10 5 10 -5 0
-17 -5 -25 -10z"/>
<path d="M705 1480 c-3 -6 1 -7 9 -4 18 7 21 14 7 14 -6 0 -13 -4 -16 -10z"/>
<path d="M644 1444 c-18 -14 -18 -15 4 -4 12 6 22 13 22 15 0 8 -5 6 -26 -11z"/>
<path d="M2359 1523 c-13 -16 -12 -17 4 -4 9 7 17 15 17 17 0 8 -8 3 -21 -13z"/>
<path d="M1460 1450 c-9 -6 -10 -10 -3 -10 6 0 15 5 18 10 8 12 4 12 -15 0z"/>
<path d="M1405 1440 c-16 -7 -17 -9 -3 -9 9 -1 20 4 23 9 7 11 7 11 -20 0z"/>
<path d="M1325 1420 c-3 -6 1 -7 9 -4 18 7 21 14 7 14 -6 0 -13 -4 -16 -10z"/>
<path d="M1194 1404 c-18 -14 -18 -14 6 -3 31 14 36 19 24 19 -6 0 -19 -7 -30
-16z"/>
<path d="M1245 1390 c-3 -6 1 -7 9 -4 18 7 21 14 7 14 -6 0 -13 -4 -16 -10z"/>
<path d="M1358 1383 c7 -3 16 -2 19 1 4 3 -2 6 -13 5 -11 0 -14 -3 -6 -6z"/>
<path d="M1124 1364 c-18 -14 -18 -15 4 -4 12 6 22 13 22 15 0 8 -5 6 -26 -11z"/>
<path d="M1194 1364 c-18 -14 -18 -14 6 -3 31 14 36 19 24 19 -6 0 -19 -7 -30
-16z"/>
<path d="M1310 1370 c-8 -5 -10 -10 -5 -10 6 0 17 5 25 10 8 5 11 10 5 10 -5
0 -17 -5 -25 -10z"/>
<path d="M1045 1318 c-60 -40 -184 -162 -208 -206 -28 -49 -15 -38 27 23 38
55 143 152 204 188 28 17 39 27 29 27 -2 0 -25 -14 -52 -32z"/>
<path d="M1220 1330 c-9 -6 -10 -10 -3 -10 6 0 15 5 18 10 8 12 4 12 -15 0z"/>
<path d="M1077 1285 c-15 -14 -24 -25 -19 -25 5 0 19 11 32 25 30 32 23 32
-13 0z"/>
<path d="M1115 1264 c-18 -16 -22 -22 -9 -15 18 9 53 42 43 41 -2 -1 -17 -12
-34 -26z"/>
<path d="M999 1213 l-34 -38 40 35 c22 19 42 36 44 38 2 1 0 2 -5 2 -6 0 -26
-17 -45 -37z"/>
<path d="M1035 1204 l-40 -36 43 32 c36 27 49 40 40 40 -2 0 -21 -16 -43 -36z"/>
<path d="M939 1153 c-13 -16 -12 -17 4 -4 9 7 17 15 17 17 0 8 -8 3 -21 -13z"/>
<path d="M947 1131 c-34 -38 -73 -101 -63 -101 3 0 12 13 21 29 8 16 20 35 27
43 46 50 61 68 56 68 -3 0 -22 -18 -41 -39z"/>
<path d="M1815 1446 c-16 -7 -36 -11 -44 -8 -9 3 -11 0 -6 -8 5 -9 1 -10 -16
-5 -19 5 -21 4 -9 -4 12 -9 13 -11 1 -11 -8 0 -12 -3 -9 -6 4 -3 17 0 29 7 13
6 46 20 74 30 27 10 41 18 30 18 -11 0 -33 -6 -50 -13z"/>
<path d="M1880 1440 c-9 -6 -10 -10 -3 -10 6 0 15 5 18 10 8 12 4 12 -15 0z"/>
<path d="M1840 1420 c-9 -6 -10 -10 -3 -10 6 0 15 5 18 10 8 12 4 12 -15 0z"/>
<path d="M1578 1399 c-21 -11 -38 -22 -38 -24 0 -3 18 4 40 15 22 11 40 23 40
25 0 7 0 7 -42 -16z"/>
<path d="M1794 1394 c-18 -14 -18 -15 4 -4 12 6 22 13 22 15 0 8 -5 6 -26 -11z"/>
<path d="M1615 1380 c-3 -6 1 -7 9 -4 18 7 21 14 7 14 -6 0 -13 -4 -16 -10z"/>
<path d="M1674 1374 c-18 -14 -18 -15 4 -4 12 6 22 13 22 15 0 8 -5 6 -26 -11z"/>
<path d="M1505 1360 c-3 -6 1 -7 9 -4 18 7 21 14 7 14 -6 0 -13 -4 -16 -10z"/>
<path d="M1580 1360 c-9 -6 -10 -10 -3 -10 6 0 15 5 18 10 8 12 4 12 -15 0z"/>
<path d="M1410 1301 c-41 -27 -84 -59 -95 -72 -11 -13 0 -7 25 13 25 20 69 50
98 68 45 27 60 40 49 40 -2 0 -36 -22 -77 -49z"/>
<path d="M1539 1333 c-13 -16 -12 -17 4 -4 9 7 17 15 17 17 0 8 -8 3 -21 -13z"/>
<path d="M1499 1303 c-13 -16 -12 -17 4 -4 9 7 17 15 17 17 0 8 -8 3 -21 -13z"/>
<path d="M1659 1303 c-13 -16 -12 -17 4 -4 9 7 17 15 17 17 0 8 -8 3 -21 -13z"/>
<path d="M1549 1293 c-13 -16 -12 -17 4 -4 9 7 17 15 17 17 0 8 -8 3 -21 -13z"/>
<path d="M1459 1273 c-13 -16 -12 -17 4 -4 16 13 21 21 13 21 -2 0 -10 -8 -17
-17z"/>
<path d="M1588 1255 c-27 -20 -48 -37 -48 -40 0 -3 23 11 50 31 43 31 58 45
48 44 -2 0 -24 -16 -50 -35z"/>
<path d="M1475 1228 l-50 -53 53 50 c28 27 52 51 52 52 0 8 -9 -1 -55 -49z"/>
<path d="M1399 1223 l-24 -28 28 24 c15 14 27 26 27 28 0 8 -8 1 -31 -24z"/>
<path d="M1212 1138 c-68 -69 -105 -116 -147 -183 -27 -44 -4 -19 40 45 22 30
42 57 45 60 60 61 143 150 139 150 -3 0 -37 -33 -77 -72z"/>
<path d="M1450 1154 c-81 -60 -199 -171 -233 -219 -12 -16 14 7 58 53 43 46
118 113 167 149 78 59 95 73 85 73 -1 0 -36 -25 -77 -56z"/>
<path d="M1329 1163 l-34 -38 38 34 c20 19 37 36 37 38 0 8 -8 0 -41 -34z"/>
<path d="M1246 1090 c-20 -22 -34 -40 -31 -40 9 0 76 72 72 77 -2 1 -20 -15
-41 -37z"/>
<path d="M1279 1054 c-30 -26 -56 -48 -58 -50 -2 -2 0 -4 5 -4 9 1 122 100
113 100 -3 0 -30 -21 -60 -46z"/>
<path d="M1174 1008 c-31 -34 -67 -81 -47 -63 21 20 85 95 81 95 -2 0 -18 -15
-34 -32z"/>
<path d="M1187 958 c-30 -41 -64 -97 -51 -83 16 16 84 115 79 115 -2 0 -15
-15 -28 -32z"/>
<path d="M1103 918 c-15 -20 -25 -38 -20 -38 3 0 12 11 21 25 17 26 16 35 -1
13z"/>
<path d="M1165 859 c-4 -6 -5 -12 -2 -15 2 -3 7 2 10 11 7 17 1 20 -8 4z"/>
<path d="M1870 1330 c-12 -16 -19 -30 -16 -30 2 0 14 14 26 30 12 17 19 30 16
30 -2 0 -14 -13 -26 -30z"/>
<path d="M1824 1308 c-56 -63 -77 -88 -72 -88 3 0 28 27 57 60 55 63 66 83 15
28z"/>
<path d="M1660 1168 c-57 -62 -152 -165 -213 -228 -60 -63 -126 -133 -146
-156 -20 -22 11 8 69 66 58 59 156 162 219 231 63 68 131 141 150 162 19 20
33 37 30 37 -3 0 -52 -51 -109 -112z"/>
<path d="M1804 1238 l-19 -23 23 19 c21 18 27 26 19 26 -2 0 -12 -10 -23 -22z"/>
<path d="M1719 1183 l-24 -28 28 24 c25 23 32 31 24 31 -2 0 -14 -12 -28 -27z"/>
<path d="M1740 1150 c-12 -16 -19 -30 -16 -30 2 0 14 14 26 30 12 17 19 30 16
30 -2 0 -14 -13 -26 -30z"/>
<path d="M1669 1123 l-24 -28 28 24 c15 14 27 26 27 28 0 8 -8 1 -31 -24z"/>
<path d="M1578 1018 c-79 -90 -162 -180 -211 -230 -21 -22 -37 -42 -34 -44 2
-2 30 24 63 58 79 84 257 288 251 288 -3 0 -34 -32 -69 -72z"/>
<path d="M1679 1063 c-13 -16 -12 -17 4 -4 16 13 21 21 13 21 -2 0 -10 -8 -17
-17z"/>
<path d="M2021 1284 c0 -11 3 -14 6 -6 3 7 2 16 -1 19 -3 4 -6 -2 -5 -13z"/>
<path d="M2020 1250 c0 -5 5 -10 11 -10 5 0 7 5 4 10 -3 6 -8 10 -11 10 -2 0
-4 -4 -4 -10z"/>
<path d="M2021 1218 c1 -7 5 -24 9 -38 8 -23 8 -22 7 8 -1 19 -5 36 -9 38 -4
3 -8 -1 -7 -8z"/>
<path d="M2010 1151 c0 -5 5 -13 10 -16 6 -3 10 -2 10 4 0 5 -4 13 -10 16 -5
3 -10 2 -10 -4z"/>
<path d="M1983 1053 c-3 -10 -8 -22 -11 -27 -3 -5 0 -6 5 -3 11 7 25 47 17 47
-3 0 -7 -8 -11 -17z"/>
<path d="M2001 1034 c0 -11 3 -14 6 -6 3 7 2 16 -1 19 -3 4 -6 -2 -5 -13z"/>
<path d="M1936 943 c-6 -14 -5 -15 5 -6 7 7 10 15 7 18 -3 3 -9 -2 -12 -12z"/>
<path d="M1911 893 c-10 -26 -10 -27 4 -9 8 11 15 23 15 28 0 15 -7 8 -19 -19z"/>
<path d="M1795 742 c-33 -32 -71 -65 -85 -74 -14 -9 -19 -17 -12 -17 7 -1 47
33 90 74 42 41 75 74 72 75 -3 0 -32 -26 -65 -58z"/>
<path d="M1937 1311 c-3 -13 -1 -18 9 -14 7 2 10 11 7 19 -7 19 -10 18 -16 -5z"/>
<path d="M1896 1265 c-9 -26 -7 -32 5 -12 6 10 9 21 6 23 -2 3 -7 -2 -11 -11z"/>
<path d="M1937 1259 c4 -13 8 -18 11 -10 2 7 -1 18 -6 23 -8 8 -9 4 -5 -13z"/>
<path d="M1906 1213 c-6 -14 -5 -15 5 -6 7 7 10 15 7 18 -3 3 -9 -2 -12 -12z"/>
<path d="M1805 1139 c-4 -6 -5 -12 -2 -15 2 -3 7 2 10 11 7 17 1 20 -8 4z"/>
<path d="M1782 1090 c-18 -29 -15 -38 4 -12 9 13 14 25 12 27 -2 2 -9 -5 -16
-15z"/>
<path d="M1816 1085 c-9 -26 -7 -32 5 -12 6 10 9 21 6 23 -2 3 -7 -2 -11 -11z"/>
<path d="M1856 1085 c-9 -26 -7 -32 5 -12 6 10 9 21 6 23 -2 3 -7 -2 -11 -11z"/>
<path d="M1790 1030 c-6 -11 -8 -20 -6 -20 3 0 10 9 16 20 6 11 8 20 6 20 -3
0 -10 -9 -16 -20z"/>
<path d="M1735 1004 c-9 -14 -32 -44 -52 -67 -26 -31 -24 -30 11 7 43 45 73
86 63 86 -3 0 -12 -12 -22 -26z"/>
<path d="M1766 983 c-6 -14 -5 -15 5 -6 7 7 10 15 7 18 -3 3 -9 -2 -12 -12z"/>
<path d="M1696 900 c-33 -33 -79 -73 -103 -88 -23 -15 -43 -31 -43 -36 0 -17
116 78 175 143 55 61 38 50 -29 -19z"/>
<path d="M1764 923 c-55 -74 -176 -191 -215 -208 -21 -10 -37 -20 -35 -22 19
-19 195 137 264 235 32 45 21 40 -14 -5z"/>
</g>
</svg>
